<?xml version="1.0" encoding="utf-8"?>
<!-- Generator: Adobe Illustrator 16.0.0, SVG Export Plug-In . SVG Version: 6.00 Build 0)  -->
<!DOCTYPE svg PUBLIC "-//W3C//DTD SVG 1.1//EN" "http://www.w3.org/Graphics/SVG/1.1/DTD/svg11.dtd">
<svg version="1.1" id="Layer_1" xmlns="http://www.w3.org/2000/svg" xmlns:xlink="http://www.w3.org/1999/xlink" x="0px" y="0px"
	 width="460.929px" height="460px" viewBox="0 0 460.929 460" enable-background="new 0 0 460.929 460" xml:space="preserve">
<g>
	<path fill-rule="evenodd" clip-rule="evenodd" d="M460.434,216.244c0.418,7.471,0.457,15.094,0.118,22.944
		c-0.37,8.575-1.061,17.151-2.417,25.632c-2.67,16.693-8.527,32.621-13.243,48.801c-0.787,2.699-2.542,3.607-4.969,4.145
		c-5.776,1.277-11.532,2.652-17.292,4.006c-15.335,3.605-30.664,7.234-46.003,10.826c-13.227,3.1-26.469,6.137-39.693,9.242
		c-18.502,4.346-36.988,8.75-55.49,13.094c-15.012,3.523-30.041,6.971-45.052,10.498c-18.174,4.27-36.332,8.605-54.503,12.883
		c-16.955,3.99-33.923,7.922-50.873,11.93c-3.07,0.727-6.137,1.547-9.099,2.617c-2.134,0.771-3.28,2.65-3.13,4.939
		c0.15,2.293,1.565,3.934,3.75,4.512c1.292,0.342,2.811,0.307,4.126,0.004c15.105-3.477,30.191-7.035,45.283-10.572
		c15.338-3.596,30.68-7.182,46.014-10.789c11.279-2.652,22.546-5.361,33.829-7.996c18.59-4.342,37.192-8.621,55.78-12.967
		c13.716-3.209,27.41-6.5,41.123-9.719c13.224-3.104,26.464-6.133,39.686-9.246c13.546-3.189,27.075-6.449,40.617-9.652
		c2.784-0.66,5.597-1.207,8.752-1.881c-0.268,0.877-0.335,1.283-0.508,1.637c-6.45,13.219-14.073,25.723-22.969,37.436
		c-0.7,0.922-1.885,1.768-2.994,2.045c-10.915,2.721-21.86,5.32-32.799,7.943c-12.969,3.113-25.944,6.195-38.909,9.328
		c-17.904,4.324-35.798,8.701-53.704,13.021c-14.583,3.518-29.183,6.971-43.769,10.477c-15.073,3.623-30.14,7.27-45.204,10.922
		c-7.533,1.826-15.07,3.643-22.581,5.557c-3.382,0.861-5.127,3.213-4.806,6.066c0.373,3.32,3.473,5.221,7.389,4.314
		c9.258-2.141,18.498-4.361,27.738-6.584c17.987-4.324,35.969-8.676,53.954-13.012c13.123-3.166,26.25-6.316,39.371-9.492
		c16.039-3.881,32.07-7.797,48.111-11.672c14.824-3.582,29.654-7.141,44.486-10.689c3.242-0.773,6.505-1.463,9.758-2.191
		c-0.346,1.266-0.928,1.945-1.54,2.596c-21.048,22.379-45.526,39.969-73.526,52.635c-14.158,6.406-28.836,11.301-43.984,14.697
		c-39.59,8.877-80.891,7.293-119.598-5.094c-20.124-6.439-39.051-15.332-56.703-26.92c-17.171-11.271-32.581-24.57-46.17-40.01
		c-15.146-17.211-27.488-36.205-36.97-57.057c-5.457-12-10-24.355-13.098-37.172c-1.931-7.988-3.489-16.086-4.792-24.203
		c-1.202-7.477-1.793-15.051-2.746-22.572c-0.419-3.305-0.25-3.56,3.073-4.361c11.667-2.813,23.322-5.68,34.973-8.559
		c2.584-0.638,5.219-1.197,7.681-2.17c3.009-1.191,4.167-3.783,3.298-6.414c-0.878-2.662-3.598-4.195-6.616-3.555
		c-3.423,0.727-6.819,1.578-10.218,2.413c-9.955,2.445-19.899,4.935-29.861,7.349c-2.981,0.723-3.231,0.4-2.872-2.555
		c1.107-9.098,2.252-18.192,3.213-27.305c0.201-1.899,0.822-2.737,2.678-3.193c11.653-2.864,23.286-5.811,34.908-8.799
		c3.538-0.909,7.123-1.782,10.496-3.144c2.612-1.054,3.516-3.493,2.88-5.719c-0.682-2.385-2.833-3.975-5.461-3.94
		c-0.823,0.011-1.659,0.17-2.463,0.369c-10.6,2.624-21.191,5.28-31.793,7.895c-2.598,0.641-5.224,1.164-8.222,1.826
		c0.206-1.63,0.234-2.628,0.466-3.577c2.831-11.581,6.277-22.96,10.804-34.013c0.755-1.843,1.834-2.639,3.539-3.023
		c3.657-0.825,7.321-1.623,10.976-2.457c5.121-1.168,10.26-2.268,15.346-3.573c3.34-0.857,5.338-3.816,4.659-6.413
		c-0.801-3.059-3.836-4.745-7.297-3.977c-5.453,1.209-10.892,2.481-16.343,3.697c-1.17,0.261-2.368,0.397-3.949,0.655
		c0.38-0.888,0.546-1.338,0.759-1.764c9.619-19.303,21.83-36.826,36.452-52.65c20.975-22.699,45.589-40.4,73.731-53.176
		c14.987-6.804,30.525-11.938,46.637-15.357c39.213-8.321,75.951-4.388,114.511,4.651c3.741,0.877,7.338,2.371,11.002,3.582
		c-2.644,1.097-5.209,1.706-7.793,2.223c-15.69,3.144-31.392,6.24-47.08,9.403c-16.014,3.23-32.011,6.54-48.024,9.776
		c-15.523,3.138-31.061,6.213-46.586,9.342c-15.934,3.211-31.862,6.453-47.792,9.685c-3.35,0.679-6.714,1.298-10.04,2.083
		c-3.986,0.94-6.193,3.612-5.559,6.497c0.722,3.282,3.877,4.893,7.941,4.053c0.082-0.017,0.162-0.039,0.244-0.055
		c13.973-2.815,27.947-5.622,41.917-8.447c15.851-3.207,31.697-6.435,47.546-9.646c11.686-2.367,23.371-4.73,35.061-7.082
		c15.692-3.158,31.39-6.295,47.081-9.457c16.507-3.326,33-6.722,49.531-9.93c1.723-0.335,3.868-0.05,5.455,0.708
		c12.508,5.972,24.365,13.072,35.641,21.138c0.434,0.31,0.75,0.783,1.365,1.439c-1.102,0.29-1.879,0.521-2.668,0.697
		c-5.86,1.3-11.723,2.587-17.583,3.882c-13.186,2.914-26.376,5.804-39.552,8.767c-3.488,0.785-6.998,1.591-10.362,2.773
		c-2.485,0.874-3.635,3.385-3.198,5.613c0.492,2.509,2.644,4.284,5.404,4.335c0.902,0.017,1.822-0.171,2.713-0.366
		c3.825-0.837,7.639-1.726,11.461-2.571c20.992-4.64,41.991-9.25,62.969-13.954c1.666-0.374,2.813-0.104,4.078,0.975
		c9.729,8.306,18.609,17.443,26.859,27.205c0.338,0.399,0.525,0.925,0.904,1.611c-1.525,0.409-2.793,0.787-4.078,1.089
		c-16.146,3.801-32.297,7.577-48.441,11.388c-18.818,4.442-37.635,8.888-56.438,13.39c-3.473,0.832-6.981,1.68-10.286,2.99
		c-2.688,1.065-3.587,3.539-2.873,5.932c0.729,2.447,3.035,4.026,5.761,3.865c0.824-0.048,1.645-0.261,2.454-0.451
		c6.976-1.637,13.948-3.286,20.922-4.931c16.219-3.826,32.44-7.636,48.654-11.481c16.545-3.923,33.083-7.866,49.613-11.842
		c1.805-0.434,2.975,0.028,3.985,1.597c3.204,4.972,6.598,9.822,9.745,14.828c2.281,3.63,4.287,7.434,6.563,11.42
		c-1.528,0.519-2.592,0.971-3.7,1.241c-8.256,2.015-16.53,3.954-24.781,5.992c-17.475,4.316-34.932,8.702-52.407,13.016
		c-19.012,4.693-38.04,9.317-57.049,14.024c-3.142,0.778-6.271,1.679-9.303,2.8c-2.056,0.761-3.084,2.649-2.938,4.804
		c0.152,2.246,1.42,4.016,3.693,4.522c1.395,0.311,2.986,0.315,4.374-0.019c12.64-3.04,25.248-6.2,37.874-9.292
		c14.326-3.509,28.67-6.949,42.991-10.481c21.36-5.269,42.712-10.576,64.053-15.921c1.632-0.409,2.556,0.061,3.177,1.487
		c0.899,2.062,1.814,4.118,2.688,6.191C452.983,166.331,458.985,190.365,460.434,216.244z M328.774,224.207
		c0.137-0.018,0.273-0.036,0.41-0.055c0.281,0.683,0.588,1.355,0.84,2.049c2.154,5.914,4.257,11.848,6.455,17.746
		c3.503,9.4,6.928,18.836,10.65,28.152c3.171,7.932,6.637,15.75,10.138,23.545c1.226,2.729,3.24,3.574,5.643,3.023
		c2.89-0.66,5.13-3.17,5.006-5.957c-0.26-5.814-0.804-11.621-0.988-17.438c-0.45-14.15-0.843-28.301-1.099-42.457
		c-0.16-8.922-0.035-17.85-0.025-26.774c0.002-1.917,0.008-3.836,0.1-5.751c0.301-6.232,0.682-12.461,0.914-18.696
		c0.029-0.764-0.459-1.987-1.051-2.266c-6.365-2.997-11.257-0.76-11.445,6.347c-0.403,15.156-0.834,30.312-1.051,45.471
		c-0.088,6.238,0.338,12.484,0.555,18.727c0.078,2.25,0.229,4.496,0.345,6.744c-1.713-3.029-3.013-6.127-4.087-9.303
		c-2.04-6.035-3.855-12.146-5.943-18.164c-2.034-5.861-4.14-11.706-6.49-17.445c-3.172-7.748-6.641-15.374-9.914-23.082
		c-1.773-4.173-7.719-3.691-9.483-0.184c-0.786,1.564-1.447,3.418-1.423,5.13c0.402,28.081-1.139,56.184,0.958,84.248
		c0.532,7.135,0.702,14.297,1.253,21.43c0.119,1.559,0.809,3.355,1.839,4.498c1.84,2.039,6.553,1.947,9.358,0.184
		c2.401-1.508,1.355-3.615,0.896-5.607c-0.037-0.162-0.067-0.328-0.08-0.494c-0.762-10.285-1.912-20.561-2.186-30.859
		C328.491,252.722,328.774,238.46,328.774,224.207z M177.58,122.242c2.239,6.241,4.159,11.801,6.224,17.307
		c4.306,11.481,8.556,22.986,13.085,34.379c2.85,7.167,6.078,14.188,9.32,21.19c1.148,2.481,3.295,3.224,5.617,2.576
		c2.934-0.818,4.947-2.972,4.835-5.535c-0.259-5.899-0.761-11.789-0.974-17.689c-0.445-12.308-0.906-24.619-1.1-36.933
		c-0.185-11.756-0.043-23.517-0.029-35.275c0.001-1.08,0.123-2.159,0.176-3.24c0.3-6.145,0.64-12.289,0.836-18.437
		c0.023-0.743-0.551-1.922-1.167-2.205c-6.839-3.144-11.13-0.201-11.302,6.261c-0.428,15.986-0.911,31.975-1.034,47.965
		c-0.058,7.474,0.67,14.953,1.02,22.432c0.015,0.315-0.197,0.643-0.495,1.542c-1.814-4.924-3.489-9.239-4.996-13.611
		c-1.75-5.082-3.242-10.254-5.047-15.316c-2.725-7.641-5.473-15.279-8.494-22.804c-2.377-5.92-5.064-11.726-7.896-17.443
		c-0.569-1.148-2.345-2.208-3.679-2.371c-3.973-0.487-7.009,2.614-6.938,6.906c0.464,28.24-1.1,56.502,1.004,84.725
		c0.538,7.216,0.704,14.458,1.197,21.678c0.152,2.23,0.959,4.076,3.327,5.346c2.6,1.394,4.679,0.358,6.924-0.333
		c2.022-0.623,3.043-1.948,2.339-4.185c-0.224-0.713-0.459-1.445-0.524-2.183c-0.761-8.616-1.945-17.225-2.129-25.854
		C177.336,155.077,177.58,139.006,177.58,122.242z M273.943,268.113c0.843,4.428,1.646,8.475,2.372,12.535
		c0.51,2.848,0.917,5.713,1.364,8.572c0.771,4.92,1.431,9.861,2.349,14.754c0.439,2.34,1.214,4.65,2.114,6.859
		c0.874,2.146,2.479,3.115,4.999,2.451c4.114-1.082,6.292-4.668,5.504-9.807c-1.193-7.785-2.555-15.545-3.737-23.332
		c-0.772-5.09-1.231-10.229-2.054-15.309c-0.833-5.154-1.875-10.277-2.945-15.387c-1.137-5.426-2.156-10.896-3.695-16.211
		c-1.863-6.431-3.932-12.838-6.471-19.025c-1.451-3.533-3.438-7.245-6.202-9.754c-5.212-4.73-9.856-4.525-13.653,0.708
		c-1.514,2.087-2.604,4.745-3.053,7.291c-1.369,7.762-2.779,15.563-3.35,23.408c-0.82,11.285-0.963,22.619-1.297,33.936
		c-0.15,5.082,0.172,10.186-0.137,15.254c-0.577,9.461-1.48,18.902-2.191,28.355c-0.135,1.797-0.26,3.66,0.052,5.414
		c0.64,3.602,4.228,5.477,8.104,4.475c3.048-0.785,4.985-4.457,4.181-7.58c-0.303-1.176-0.305-2.49-0.162-3.709
		c1.308-11.252,2.584-22.516,2.125-33.863c-0.128-3.166,0.463-5.109,3.845-6.004C265.969,271.095,269.799,269.539,273.943,268.113z
		 M222.832,269.373c-0.623-5.928-0.842-12.025-1.996-17.938c-1.412-7.242-4.186-14.117-7.732-20.621
		c-2.723-4.992-5.864-9.544-10.787-12.825c-5.514-3.676-11.628-5.148-17.969-6.115c-3.177-0.485-5.459,1.558-5.354,4.796
		c0.297,9.061,0.766,18.117,1.016,27.178c0.289,10.408,0.506,20.82,0.578,31.232c0.043,6.072-0.476,12.152-0.359,18.223
		c0.188,9.814,0.643,19.623,1.095,29.428c0.125,2.711,0.515,5.426,1.011,8.096c0.52,2.795,3.324,5.246,5.379,4.492
		c2.602-0.953,5.402-2.041,7.396-3.859c7.742-7.063,14.109-15.334,18.582-24.801c2.963-6.266,5.498-12.857,7.188-19.566
		C222.3,281.447,222.225,275.423,222.832,269.373z M78.464,188.417c6.868-3.273,12.137-7.752,14.816-14.179
		c2.561-6.143,4.155-12.747,5.611-19.274c1.37-6.141,2.072-12.437,2.941-18.683c0.818-5.878,1.284-11.777-0.629-17.567
		c-2.358-7.139-7.647-11.729-14.689-13.572c-4.442-1.163-8.892-0.67-13.344,0.001c-4.028,0.608-6.759,4.333-6.039,8.259
		c0.194,1.058,0.348,2.147,0.323,3.217c-0.102,4.242-0.34,8.482-0.417,12.725c-0.114,6.252-0.093,12.508-0.201,18.76
		c-0.187,10.803-0.424,21.605-0.659,32.407c-0.014,0.649-0.03,1.39-0.332,1.927c-1.214,2.162-0.829,4.098,0.516,6.029
		c0.308,0.442,0.462,1.069,0.483,1.62c0.407,10.787,0.806,21.575,1.154,32.365c0.102,3.145,1.409,5.076,4.268,5.947
		c2.439,0.744,5.066-0.334,6.627-2.775c1.933-3.021,1.766-6.055,1.321-9.661C79.078,206.753,78.969,197.416,78.464,188.417z
		 M78.477,322.921c1.698-0.871,3.017-1.395,4.171-2.164c8.084-5.396,12.28-13.221,14.105-22.566
		c1.143-5.85,2.805-11.615,3.627-17.504c1.01-7.227,2.037-14.559,1.859-21.816c-0.189-7.725-4.077-13.867-11.291-17.541
		c-6.073-3.094-12.398-2.689-18.729-1.447c-3.211,0.629-5.41,4.113-5.291,7.02c0.157,3.801,0.195,7.615,0.098,11.418
		c-0.322,12.643-0.757,25.281-1.083,37.924c-0.125,4.83-0.467,9.703,0.014,14.484c0.472,4.686-2.107,9.563,0.894,14.059
		c0.077,0.115,0.006,0.326,0.012,0.492c0.384,10.867,0.761,21.734,1.158,32.602c0.118,3.24,3.706,5.875,6.868,5.088
		c3.914-0.975,6.977-6.398,5.804-10.262c-0.265-0.873-0.661-1.748-0.714-2.639C79.442,340.949,78.962,331.826,78.477,322.921z
		 M140.719,335.119c-0.457-6.461-0.958-12.422-1.28-18.391c-0.456-8.477-0.759-16.961-1.174-25.438
		c-0.083-1.693,0.378-2.523,2.255-2.789c4.178-0.592,8.329-1.404,12.463-2.264c2.727-0.564,5.464-1.414,6.399-4.469
		c0.779-2.549-0.118-4.713-2.116-6.484c-2.208-1.959-4.561-0.83-6.873-0.432c-3.96,0.678-7.91,1.418-11.913,2.141
		c-0.449-6.068-0.978-11.855-1.277-17.654c-0.313-6.07-0.374-12.152-0.614-18.229c-0.073-1.828,0.518-2.768,2.461-2.965
		c3.302-0.338,6.639-0.641,9.852-1.412c2.083-0.502,4.14-1.574,5.901-2.824c1.803-1.281,2.341-3.664,1.157-5.373
		c-1.055-1.521-3.09-3.168-4.802-3.297c-7.988-0.596-15.598,1.814-23.127,4.051c-4.121,1.225-4.78,3.105-4.1,7.523
		c0.228,1.482,0.536,2.962,0.619,4.453c0.574,10.213,1.562,20.432,1.54,30.645c-0.047,21.422,1.051,42.781,2.487,64.135
		c0.145,2.148,0.649,4.271,0.869,6.416c0.458,4.473,5.617,6.199,9.182,5.162c3.808-1.109,7.666-2.047,11.486-3.119
		c2.31-0.646,4.698-1.17,6.857-2.168c3.736-1.725,4.768-5.619,2.498-8.441c-1.58-1.965-4.796-2.693-7.272-1.938
		C148.492,333.091,144.728,334.025,140.719,335.119z M231.129,83.045c0.214,3.033,3.216,6.918,6.272,5.955
		c1.734-0.547,3.51-0.987,5.203-1.644c3.18-1.233,3.941-0.758,4.111,2.741c0.531,10.885,1.105,21.768,1.595,32.655
		c0.49,10.897,1.073,21.795,1.272,32.698c0.105,5.857,1.65,11.711,0.191,17.601c-0.152,0.614,0.199,1.499,0.588,2.075
		c1.991,2.952,4.771,3.726,8.432,2.465c2.322-0.8,3.844-3.541,3.652-6.683c-0.258-4.227-0.635-8.447-0.813-12.676
		c-0.466-10.978-0.847-21.96-1.275-32.94c-0.101-2.578-0.235-5.155-0.397-7.73c-0.393-6.225-0.876-12.444-1.193-18.672
		c-0.198-3.886,0.064-7.806-0.295-11.672c-0.354-3.815-0.536-3.872,3.146-4.695c0.405-0.09,0.843-0.056,1.236-0.176
		c5.051-1.539,10.177-2.882,15.115-4.727c2.879-1.075,3.439-4.763,1.55-7.174c-2.171-2.771-3.985-3.04-7.737-1.847
		c-3.702,1.176-7.521,1.992-11.299,2.92c-4.259,1.046-8.525,2.06-12.797,3.052c-3.776,0.878-7.549,1.788-11.354,2.53
		C233.762,77.604,231.082,80.502,231.129,83.045z M398.478,187.334c0.287,1.424,0.646,2.46,0.685,3.509
		c0.227,5.989,0.381,11.98,0.552,17.971c0.067,2.333,0.046,4.671,0.182,7c0.635,10.955,1.347,21.907,1.956,32.863
		c0.277,4.988,0.461,9.984,0.536,14.979c0.049,3.289-0.21,6.58-0.249,9.871c-0.009,0.787,0.105,1.703,0.509,2.344
		c1.589,2.523,4.537,3.82,6.752,3.139c4.036-1.242,5.618-3.109,5.452-6.9c-0.188-4.316-0.69-8.617-0.87-12.932
		c-0.445-10.727-0.742-21.461-1.188-32.188c-0.176-4.234-0.619-8.457-0.881-12.688c-0.309-4.98-0.605-9.963-0.808-14.948
		c-0.154-3.804,0.054-7.633-0.281-11.417c-0.324-3.668-0.521-3.686,3.034-4.559c0.48-0.119,1.013-0.044,1.483-0.185
		c4.816-1.441,9.687-2.736,14.411-4.434c2.669-0.959,3.787-3.756,3.033-6.04c-0.86-2.603-3.768-4.355-6.47-3.725
		c-4.672,1.091-9.31,2.325-13.974,3.445c-3.789,0.909-7.604,1.711-11.395,2.609c-4.089,0.969-8.255,1.734-12.205,3.112
		c-1.837,0.641-3.763,2.224-4.719,3.908c-1.394,2.453,0.04,4.71,1.921,6.645c1.752,1.802,3.484,1.295,5.48,0.578
		C393.644,188.495,395.975,188.013,398.478,187.334z M125.688,188.384c-0.154,0-0.309-0.001-0.463-0.001
		c0,5.67-0.116,11.345,0.059,17.01c0.068,2.203,0.511,4.498,1.323,6.535c0.473,1.187,1.865,2.367,3.107,2.808
		c2.3,0.815,4.79,0.371,6.413-1.523c1.691-1.975,2.632-4.385,1.775-7.166c-0.384-1.247-0.704-2.58-0.693-3.871
		c0.111-13.996,0.301-27.99,0.453-41.986c0.029-2.638-0.147-5.285,0-7.915c0.274-4.897,0.889-9.778,1.055-14.677
		c0.35-10.239,0.584-20.485,0.671-30.729c0.021-2.451-0.577-4.943-1.149-7.355c-0.781-3.292-3.705-5.099-6.725-4.403
		c-2.912,0.67-5.282,4.293-4.96,7.228c0.433,3.955,1.048,7.943,0.925,11.896c-0.448,14.39-1.335,28.767-1.733,43.157
		C125.458,167.715,125.688,178.053,125.688,188.384z"/>
	<path fill-rule="evenodd" clip-rule="evenodd" fill="#FFFFFF" d="M224.192,0c-0.967,0.333-1.921,0.907-2.903,0.962
		c-13.002,0.741-25.881,2.34-38.629,5.046c-16.112,3.419-31.649,8.553-46.637,15.357c-28.143,12.776-52.757,30.478-73.731,53.176
		C47.67,90.366,35.459,107.89,25.84,127.192c-0.212,0.426-0.378,0.875-0.759,1.764c1.581-0.258,2.779-0.395,3.949-0.655
		c5.451-1.216,10.89-2.488,16.343-3.697c3.461-0.768,6.496,0.918,7.297,3.977c0.68,2.597-1.318,5.556-4.659,6.413
		c-5.086,1.305-10.226,2.405-15.346,3.573c-3.655,0.834-7.319,1.632-10.976,2.457c-1.705,0.385-2.784,1.18-3.539,3.023
		c-4.527,11.053-7.974,22.432-10.804,34.013c-0.232,0.949-0.261,1.947-0.466,3.577c2.998-0.662,5.624-1.185,8.222-1.826
		c10.602-2.615,21.193-5.271,31.793-7.895c0.804-0.199,1.64-0.357,2.463-0.369c2.627-0.035,4.779,1.555,5.461,3.94
		c0.636,2.227-0.268,4.665-2.88,5.719c-3.373,1.361-6.958,2.234-10.496,3.144c-11.622,2.988-23.255,5.935-34.908,8.799
		c-1.855,0.456-2.477,1.293-2.678,3.193c-0.961,9.113-2.106,18.207-3.213,27.305c-0.359,2.955-0.109,3.277,2.872,2.555
		c9.962-2.414,19.906-4.903,29.861-7.349c3.399-0.835,6.795-1.687,10.218-2.413c3.018-0.641,5.738,0.893,6.616,3.555
		c0.869,2.631-0.29,5.223-3.298,6.414c-2.462,0.973-5.097,1.532-7.681,2.17c-11.651,2.879-23.306,5.746-34.973,8.559
		c-3.323,0.802-3.492,1.057-3.073,4.361c0.953,7.521,1.544,15.096,2.746,22.572c1.303,8.117,2.861,16.215,4.792,24.203
		c3.097,12.816,7.641,25.172,13.098,37.172c9.482,20.852,21.824,39.846,36.97,57.057c13.589,15.439,28.999,28.738,46.17,40.01
		c17.652,11.588,36.58,20.48,56.703,26.92c15.467,4.949,31.338,7.797,47.398,9.748c4.213,0.512,8.486,0.512,12.725,0.85
		c0.821,0.064,1.605,0.607,2.405,0.93c-74.72,0-149.441,0-224.192,0C0,307.306,0,153.653,0,0C74.751,0,149.472,0,224.192,0z"/>
	<path fill-rule="evenodd" clip-rule="evenodd" fill="#FFFFFF" d="M460.929,216.216c-0.317-0.633-0.842-1.238-0.921-1.898
		c-0.769-6.449-1.259-12.936-2.236-19.351c-0.875-5.746-2.127-11.446-3.45-17.111c-2.942-12.586-6.947-24.84-11.963-36.758
		c-0.873-2.073-1.788-4.129-2.688-6.191c-0.621-1.426-1.545-1.896-3.177-1.487c-21.341,5.345-42.692,10.652-64.053,15.921
		c-14.321,3.532-28.665,6.972-42.991,10.481c-12.626,3.092-25.234,6.253-37.874,9.292c-1.388,0.334-2.979,0.33-4.374,0.019
		c-2.273-0.506-3.541-2.276-3.693-4.522c-0.146-2.155,0.883-4.043,2.938-4.804c3.032-1.121,6.161-2.022,9.303-2.8
		c19.009-4.707,38.037-9.331,57.049-14.024c17.476-4.314,34.933-8.7,52.407-13.016c8.251-2.038,16.525-3.977,24.781-5.992
		c1.108-0.271,2.172-0.723,3.7-1.241c-2.276-3.986-4.282-7.79-6.563-11.42c-3.147-5.006-6.541-9.856-9.745-14.828
		c-1.011-1.569-2.181-2.031-3.985-1.597c-16.53,3.977-33.068,7.919-49.613,11.842c-16.214,3.845-32.436,7.656-48.654,11.481
		c-6.974,1.645-13.946,3.294-20.922,4.931c-0.81,0.19-1.63,0.402-2.454,0.451c-2.726,0.161-5.031-1.418-5.761-3.865
		c-0.714-2.393,0.185-4.866,2.873-5.932c3.305-1.311,6.813-2.159,10.286-2.99c18.804-4.501,37.62-8.948,56.438-13.39
		c16.145-3.811,32.296-7.586,48.441-11.388c1.285-0.302,2.553-0.68,4.078-1.089c-0.379-0.686-0.566-1.211-0.904-1.611
		c-8.25-9.761-17.131-18.899-26.859-27.205c-1.266-1.08-2.412-1.349-4.078-0.975c-20.978,4.703-41.977,9.313-62.969,13.954
		c-3.822,0.845-7.636,1.734-11.461,2.571c-0.891,0.195-1.811,0.382-2.713,0.366c-2.761-0.051-4.912-1.826-5.404-4.335
		c-0.437-2.228,0.713-4.739,3.198-5.613c3.364-1.183,6.874-1.989,10.362-2.773c13.176-2.962,26.366-5.853,39.552-8.767
		c5.86-1.295,11.723-2.582,17.583-3.882c0.789-0.175,1.566-0.407,2.668-0.697c-0.615-0.656-0.932-1.129-1.365-1.439
		c-11.275-8.066-23.133-15.166-35.641-21.138c-1.587-0.758-3.732-1.043-5.455-0.708c-16.531,3.208-33.024,6.604-49.531,9.93
		c-15.691,3.162-31.389,6.299-47.081,9.457c-11.689,2.352-23.375,4.715-35.061,7.082c-15.85,3.211-31.696,6.439-47.546,9.646
		c-13.97,2.826-27.944,5.632-41.917,8.447c-0.082,0.016-0.163,0.038-0.244,0.055c-4.064,0.839-7.22-0.771-7.941-4.053
		c-0.634-2.885,1.573-5.556,5.559-6.497c3.325-0.785,6.69-1.404,10.04-2.083c15.93-3.232,31.858-6.474,47.792-9.685
		c32.359-6.521,64.706-13.1,97.067-19.613c16.245-3.27,37.056-4.037,52.008-11.119c-21.271-9.546-45.583-13.95-68.817-14.246
		C296.913-0.27,354.89,0,412.857,0c3.973,0,48.071,0,48.071,0C460.929,72.072,460.929,144.144,460.929,216.216z"/>
	<path fill-rule="evenodd" clip-rule="evenodd" fill="#FFFFFF" d="M237.206,460.96c1.07-0.332,2.129-0.906,3.214-0.961
		c13.767-0.705,27.4-2.459,40.843-5.473c15.148-3.396,29.826-8.291,43.984-14.697c28-12.666,52.479-30.256,73.526-52.635
		c0.612-0.65,1.194-1.33,1.54-2.596c-3.253,0.729-6.516,1.418-9.758,2.191c-14.832,3.549-29.662,7.107-44.486,10.689
		c-16.041,3.875-32.072,7.791-48.111,11.672c-13.121,3.176-26.248,6.326-39.371,9.492c-17.985,4.336-35.967,8.688-53.954,13.012
		c-9.24,2.223-18.48,4.443-27.738,6.584c-3.916,0.906-7.016-0.994-7.389-4.314c-0.321-2.854,1.424-5.205,4.806-6.066
		c7.511-1.914,15.048-3.73,22.581-5.557c15.064-3.652,30.131-7.299,45.204-10.922c14.586-3.506,29.186-6.959,43.769-10.477
		c17.906-4.32,35.8-8.697,53.704-13.021c12.965-3.133,25.94-6.215,38.909-9.328c10.938-2.623,21.884-5.223,32.799-7.943
		c1.109-0.277,2.294-1.123,2.994-2.045c8.896-11.713,16.519-24.217,22.969-37.436c0.173-0.354,0.24-0.76,0.508-1.637
		c-3.155,0.674-5.968,1.221-8.752,1.881c-13.542,3.203-27.071,6.463-40.617,9.652c-13.222,3.113-26.462,6.143-39.686,9.246
		c-13.713,3.219-27.407,6.51-41.123,9.719c-18.588,4.346-37.19,8.625-55.78,12.967c-11.283,2.635-22.55,5.344-33.829,7.996
		c-15.334,3.607-30.676,7.193-46.014,10.789c-15.091,3.537-30.177,7.096-45.283,10.572c-1.316,0.303-2.834,0.338-4.126-0.004
		c-2.185-0.578-3.6-2.219-3.75-4.512c-0.15-2.289,0.996-4.168,3.13-4.939c2.962-1.07,6.029-1.891,9.099-2.617
		c16.95-4.008,33.918-7.939,50.873-11.93c18.171-4.277,36.329-8.613,54.503-12.883c15.011-3.527,30.04-6.975,45.052-10.498
		c18.502-4.344,36.988-8.748,55.49-13.094c13.225-3.105,26.467-6.143,39.693-9.242c15.339-3.592,30.668-7.221,46.003-10.826
		c5.76-1.354,11.516-2.729,17.292-4.006c2.427-0.537,4.182-1.445,4.969-4.145c3.188-10.938,6.75-21.768,9.827-32.732
		c3.115-11.098,4.001-22.588,5.271-33.998c0.082-0.74,0.616-1.432,0.939-2.146c0,72.031,0,144.063,0,216.217
		C386.354,460.96,311.78,460.96,237.206,460.96z"/>
	<path fill-rule="evenodd" clip-rule="evenodd" fill="#FFFFFF" d="M328.774,224.207c0,14.254-0.283,28.516,0.094,42.762
		c0.273,10.299,1.424,20.574,2.186,30.859c0.013,0.166,0.043,0.332,0.08,0.494c0.459,1.992,1.505,4.1-0.896,5.607
		c-2.806,1.764-7.519,1.855-9.358-0.184c-1.03-1.143-1.72-2.939-1.839-4.498c-0.551-7.133-0.721-14.295-1.253-21.43
		c-2.097-28.064-0.556-56.167-0.958-84.248c-0.024-1.712,0.637-3.566,1.423-5.13c1.765-3.507,7.71-3.989,9.483,0.184
		c3.273,7.708,6.742,15.333,9.914,23.082c2.351,5.739,4.456,11.583,6.49,17.445c2.088,6.018,3.903,12.129,5.943,18.164
		c1.074,3.176,2.374,6.273,4.087,9.303c-0.116-2.248-0.267-4.494-0.345-6.744c-0.217-6.242-0.643-12.488-0.555-18.727
		c0.217-15.159,0.647-30.315,1.051-45.471c0.188-7.107,5.08-9.343,11.445-6.347c0.592,0.279,1.08,1.501,1.051,2.266
		c-0.232,6.235-0.613,12.464-0.914,18.696c-0.092,1.915-0.098,3.834-0.1,5.751c-0.01,8.925-0.135,17.853,0.025,26.774
		c0.256,14.156,0.648,28.307,1.099,42.457c0.185,5.816,0.729,11.623,0.988,17.438c0.124,2.787-2.116,5.297-5.006,5.957
		c-2.402,0.551-4.417-0.295-5.643-3.023c-3.501-7.795-6.967-15.613-10.138-23.545c-3.723-9.316-7.147-18.752-10.65-28.152
		c-2.198-5.898-4.301-11.832-6.455-17.746c-0.252-0.693-0.559-1.366-0.84-2.049C329.048,224.17,328.911,224.189,328.774,224.207z"/>
	<path fill-rule="evenodd" clip-rule="evenodd" fill="#FFFFFF" d="M177.58,122.242c0,16.764-0.244,32.834,0.1,48.893
		c0.184,8.629,1.368,17.238,2.129,25.854c0.065,0.738,0.301,1.47,0.524,2.183c0.704,2.237-0.316,3.562-2.339,4.185
		c-2.245,0.69-4.324,1.726-6.924,0.333c-2.368-1.27-3.175-3.116-3.327-5.346c-0.493-7.22-0.659-14.462-1.197-21.678
		c-2.104-28.223-0.541-56.485-1.004-84.725c-0.07-4.292,2.966-7.393,6.938-6.906c1.334,0.163,3.109,1.223,3.679,2.371
		c2.831,5.717,5.519,11.523,7.896,17.443c3.021,7.525,5.77,15.163,8.494,22.804c1.805,5.062,3.297,10.234,5.047,15.316
		c1.507,4.372,3.182,8.687,4.996,13.611c0.298-0.899,0.51-1.227,0.495-1.542c-0.35-7.479-1.077-14.958-1.02-22.432
		c0.123-15.99,0.606-31.979,1.034-47.965c0.172-6.462,4.463-9.405,11.302-6.261c0.616,0.283,1.19,1.462,1.167,2.205
		c-0.196,6.148-0.536,12.292-0.836,18.437c-0.053,1.081-0.175,2.16-0.176,3.24c-0.014,11.759-0.155,23.52,0.029,35.275
		c0.193,12.314,0.654,24.625,1.1,36.933c0.213,5.9,0.715,11.79,0.974,17.689c0.112,2.563-1.901,4.717-4.835,5.535
		c-2.322,0.648-4.469-0.095-5.617-2.576c-3.242-7.002-6.471-14.023-9.32-21.19c-4.529-11.393-8.779-22.898-13.085-34.379
		C181.739,134.043,179.819,128.483,177.58,122.242z"/>
	<path fill-rule="evenodd" clip-rule="evenodd" fill="#FFFFFF" d="M273.943,268.113c-4.145,1.426-7.975,2.982-11.939,4.031
		c-3.382,0.895-3.973,2.838-3.845,6.004c0.459,11.348-0.817,22.611-2.125,33.863c-0.143,1.219-0.141,2.533,0.162,3.709
		c0.805,3.123-1.133,6.795-4.181,7.58c-3.876,1.002-7.464-0.873-8.104-4.475c-0.312-1.754-0.187-3.617-0.052-5.414
		c0.711-9.453,1.614-18.895,2.191-28.355c0.309-5.068-0.014-10.172,0.137-15.254c0.334-11.316,0.477-22.65,1.297-33.936
		c0.57-7.846,1.98-15.646,3.35-23.408c0.449-2.545,1.539-5.204,3.053-7.291c3.797-5.232,8.441-5.438,13.653-0.708
		c2.765,2.509,4.751,6.221,6.202,9.754c2.539,6.188,4.607,12.595,6.471,19.025c1.539,5.315,2.559,10.785,3.695,16.211
		c1.07,5.109,2.112,10.232,2.945,15.387c0.822,5.08,1.281,10.219,2.054,15.309c1.183,7.787,2.544,15.547,3.737,23.332
		c0.788,5.139-1.39,8.725-5.504,9.807c-2.521,0.664-4.125-0.305-4.999-2.451c-0.9-2.209-1.675-4.52-2.114-6.859
		c-0.918-4.893-1.578-9.834-2.349-14.754c-0.447-2.859-0.854-5.725-1.364-8.572C275.589,276.587,274.786,272.541,273.943,268.113z
		 M272.841,256.123c-2.229-12.193-6.27-23.836-10.488-35.894c-2.283,5.37-4.254,34.653-2.899,40.446
		C263.894,259.166,268.329,257.656,272.841,256.123z"/>
	<path fill-rule="evenodd" clip-rule="evenodd" fill="#FFFFFF" d="M222.832,269.373c-0.607,6.051-0.532,12.074-1.953,17.719
		c-1.689,6.709-4.225,13.301-7.188,19.566c-4.473,9.467-10.84,17.738-18.582,24.801c-1.994,1.818-4.795,2.906-7.396,3.859
		c-2.055,0.754-4.859-1.697-5.379-4.492c-0.496-2.67-0.886-5.385-1.011-8.096c-0.452-9.805-0.906-19.613-1.095-29.428
		c-0.116-6.07,0.402-12.15,0.359-18.223c-0.072-10.412-0.289-20.824-0.578-31.232c-0.25-9.061-0.719-18.117-1.016-27.178
		c-0.105-3.238,2.177-5.281,5.354-4.796c6.341,0.967,12.455,2.439,17.969,6.115c4.923,3.281,8.064,7.833,10.787,12.825
		c3.547,6.504,6.32,13.379,7.732,20.621C221.99,257.347,222.209,263.445,222.832,269.373z M193.142,316.21
		c0.263,0.078,0.524,0.158,0.786,0.238c2.865-4.25,6.137-8.289,8.5-12.805c3.495-6.68,5.817-13.836,7.074-21.354
		c1.582-9.479,1.606-18.971-0.64-28.205c-1.53-6.293-4.466-12.275-7.063-18.271c-1.967-4.54-5.633-7.581-10.256-10.002
		C192.08,256.16,192.611,286.185,193.142,316.21z"/>
	<path fill-rule="evenodd" clip-rule="evenodd" fill="#FFFFFF" d="M78.464,188.417c0.505,8.999,0.614,18.336,1.751,27.546
		c0.445,3.606,0.612,6.64-1.321,9.661c-1.561,2.441-4.188,3.52-6.627,2.775c-2.859-0.871-4.166-2.803-4.268-5.947
		c-0.349-10.79-0.747-21.578-1.154-32.365c-0.021-0.55-0.176-1.178-0.483-1.62c-1.345-1.931-1.729-3.867-0.516-6.029
		c0.302-0.537,0.318-1.278,0.332-1.927c0.235-10.802,0.472-21.604,0.659-32.407c0.107-6.252,0.087-12.508,0.201-18.76
		c0.077-4.243,0.316-8.482,0.417-12.725c0.025-1.07-0.129-2.159-0.323-3.217c-0.72-3.927,2.01-7.651,6.039-8.259
		c4.452-0.671,8.902-1.164,13.344-0.001c7.042,1.844,12.331,6.433,14.689,13.572c1.913,5.79,1.447,11.688,0.629,17.567
		c-0.869,6.246-1.571,12.542-2.941,18.683c-1.456,6.527-3.05,13.132-5.611,19.274C90.601,180.665,85.332,185.144,78.464,188.417z
		 M79.714,116.415c-0.681,19.665-1.357,39.209-2.034,58.754c0.272,0.089,0.545,0.179,0.817,0.268
		c1.113-1.404,2.361-2.723,3.313-4.229c3.233-5.114,3.969-11.072,5.078-16.803c1.369-7.077,2.064-14.287,2.947-21.453
		c0.334-2.716,0.536-5.469,0.517-8.204C90.324,120.474,84.297,115.643,79.714,116.415z"/>
	<path fill-rule="evenodd" clip-rule="evenodd" fill="#FFFFFF" d="M78.477,322.921c0.485,8.904,0.965,18.027,1.504,27.146
		c0.053,0.891,0.449,1.766,0.714,2.639c1.173,3.863-1.89,9.287-5.804,10.262c-3.162,0.787-6.75-1.848-6.868-5.088
		c-0.397-10.867-0.774-21.734-1.158-32.602c-0.006-0.166,0.065-0.377-0.012-0.492c-3-4.496-0.422-9.373-0.894-14.059
		c-0.481-4.781-0.139-9.654-0.014-14.484c0.326-12.643,0.762-25.281,1.083-37.924c0.097-3.803,0.059-7.617-0.098-11.418
		c-0.12-2.906,2.079-6.391,5.291-7.02c6.331-1.242,12.655-1.646,18.729,1.447c7.213,3.674,11.102,9.816,11.291,17.541
		c0.178,7.258-0.85,14.59-1.859,21.816c-0.822,5.889-2.484,11.654-3.627,17.504c-1.825,9.346-6.021,17.17-14.105,22.566
		C81.494,321.527,80.175,322.05,78.477,322.921z M79.719,250.81c-0.679,19.65-1.354,39.17-2.028,58.689
		c0.302,0.088,0.604,0.174,0.907,0.262c1.072-1.33,2.327-2.551,3.185-4.004c3.271-5.547,4.089-11.854,5.254-18.027
		c0.661-3.5,1.127-7.045,1.528-10.586c0.672-5.939,1.438-11.881,1.752-17.844C90.539,255.076,84.459,250.255,79.719,250.81z"/>
	<path fill-rule="evenodd" clip-rule="evenodd" fill="#FFFFFF" d="M140.719,335.119c4.008-1.094,7.773-2.027,11.477-3.16
		c2.476-0.756,5.692-0.027,7.272,1.938c2.27,2.822,1.238,6.717-2.498,8.441c-2.159,0.998-4.547,1.521-6.857,2.168
		c-3.82,1.072-7.678,2.01-11.486,3.119c-3.565,1.037-8.724-0.689-9.182-5.162c-0.22-2.145-0.725-4.268-0.869-6.416
		c-1.436-21.354-2.535-42.713-2.487-64.135c0.022-10.213-0.966-20.432-1.54-30.645c-0.083-1.491-0.391-2.971-0.619-4.453
		c-0.68-4.418-0.021-6.299,4.1-7.523c7.53-2.236,15.14-4.646,23.127-4.051c1.711,0.129,3.747,1.775,4.802,3.297
		c1.184,1.709,0.646,4.092-1.157,5.373c-1.761,1.25-3.818,2.322-5.901,2.824c-3.213,0.771-6.55,1.074-9.852,1.412
		c-1.943,0.197-2.534,1.137-2.461,2.965c0.241,6.076,0.301,12.158,0.614,18.229c0.299,5.799,0.828,11.586,1.277,17.654
		c4.002-0.723,7.952-1.463,11.913-2.141c2.312-0.398,4.665-1.527,6.873,0.432c1.998,1.771,2.895,3.936,2.116,6.484
		c-0.935,3.055-3.672,3.904-6.399,4.469c-4.134,0.859-8.285,1.672-12.463,2.264c-1.877,0.266-2.338,1.096-2.255,2.789
		c0.415,8.477,0.719,16.961,1.174,25.438C139.761,322.697,140.263,328.658,140.719,335.119z"/>
	<path fill-rule="evenodd" clip-rule="evenodd" fill="#FFFFFF" d="M231.129,83.045c-0.047-2.542,2.633-5.44,5.204-5.942
		c3.805-0.743,7.577-1.652,11.354-2.53c4.271-0.993,8.538-2.006,12.797-3.052c3.778-0.928,7.597-1.744,11.299-2.92
		c3.752-1.192,5.566-0.924,7.737,1.847c1.89,2.411,1.329,6.1-1.55,7.174c-4.938,1.845-10.064,3.188-15.115,4.727
		c-0.394,0.12-0.831,0.086-1.236,0.176c-3.683,0.823-3.501,0.879-3.146,4.695c0.359,3.866,0.097,7.786,0.295,11.672
		c0.317,6.229,0.801,12.448,1.193,18.672c0.162,2.575,0.297,5.152,0.397,7.73c0.429,10.98,0.81,21.962,1.275,32.94
		c0.179,4.229,0.556,8.449,0.813,12.676c0.191,3.142-1.33,5.883-3.652,6.683c-3.661,1.261-6.44,0.487-8.432-2.465
		c-0.389-0.576-0.74-1.461-0.588-2.075c1.459-5.89-0.086-11.744-0.191-17.601c-0.199-10.903-0.782-21.801-1.272-32.698
		c-0.489-10.887-1.063-21.77-1.595-32.655c-0.17-3.5-0.932-3.974-4.111-2.741c-1.693,0.657-3.469,1.096-5.203,1.644
		C234.345,89.963,231.343,86.078,231.129,83.045z"/>
	<path fill-rule="evenodd" clip-rule="evenodd" fill="#FFFFFF" d="M398.478,187.334c-2.503,0.679-4.834,1.161-7.053,1.958
		c-1.996,0.717-3.729,1.224-5.48-0.578c-1.881-1.935-3.314-4.192-1.921-6.645c0.956-1.684,2.882-3.267,4.719-3.908
		c3.95-1.378,8.116-2.143,12.205-3.112c3.791-0.898,7.605-1.701,11.395-2.609c4.664-1.12,9.302-2.354,13.974-3.445
		c2.702-0.631,5.609,1.122,6.47,3.725c0.754,2.284-0.364,5.081-3.033,6.04c-4.725,1.698-9.595,2.993-14.411,4.434
		c-0.471,0.141-1.003,0.066-1.483,0.185c-3.555,0.873-3.358,0.891-3.034,4.559c0.335,3.785,0.127,7.613,0.281,11.417
		c0.202,4.985,0.499,9.968,0.808,14.948c0.262,4.23,0.705,8.453,0.881,12.688c0.446,10.727,0.743,21.461,1.188,32.188
		c0.18,4.314,0.682,8.615,0.87,12.932c0.166,3.791-1.416,5.658-5.452,6.9c-2.215,0.682-5.163-0.615-6.752-3.139
		c-0.403-0.641-0.518-1.557-0.509-2.344c0.039-3.291,0.298-6.582,0.249-9.871c-0.075-4.994-0.259-9.99-0.536-14.979
		c-0.609-10.956-1.321-21.908-1.956-32.863c-0.136-2.328-0.114-4.666-0.182-7c-0.171-5.991-0.325-11.982-0.552-17.971
		C399.123,189.794,398.765,188.758,398.478,187.334z"/>
	<path fill-rule="evenodd" clip-rule="evenodd" fill="#FFFFFF" d="M125.688,188.384c0-10.332-0.23-20.669,0.056-30.993
		c0.398-14.39,1.286-28.767,1.733-43.157c0.123-3.953-0.493-7.941-0.925-11.896c-0.321-2.935,2.049-6.558,4.96-7.228
		c3.021-0.695,5.944,1.111,6.725,4.403c0.572,2.412,1.17,4.904,1.149,7.355c-0.087,10.245-0.322,20.49-0.671,30.729
		c-0.167,4.898-0.781,9.78-1.055,14.677c-0.147,2.63,0.029,5.276,0,7.915c-0.151,13.996-0.341,27.99-0.453,41.986
		c-0.011,1.291,0.309,2.624,0.693,3.871c0.857,2.78-0.083,5.19-1.775,7.166c-1.623,1.895-4.112,2.339-6.413,1.523
		c-1.242-0.441-2.634-1.621-3.107-2.808c-0.812-2.038-1.255-4.332-1.323-6.535c-0.174-5.665-0.059-11.339-0.059-17.01
		C125.379,188.383,125.534,188.384,125.688,188.384z"/>
	<path fill-rule="evenodd" clip-rule="evenodd" d="M272.841,256.123c-4.512,1.533-8.947,3.043-13.388,4.553
		c-1.354-5.793,0.616-35.076,2.899-40.446C266.571,232.287,270.612,243.929,272.841,256.123z"/>
	<path fill-rule="evenodd" clip-rule="evenodd" d="M193.142,316.21c-0.53-30.025-1.062-60.051-1.599-90.398
		c4.623,2.421,8.289,5.462,10.256,10.002c2.598,5.996,5.533,11.979,7.063,18.271c2.246,9.234,2.222,18.727,0.64,28.205
		c-1.257,7.518-3.579,14.674-7.074,21.354c-2.363,4.516-5.635,8.555-8.5,12.805C193.666,316.369,193.404,316.289,193.142,316.21z"/>
	<path fill-rule="evenodd" clip-rule="evenodd" d="M79.714,116.415c4.583-0.771,10.61,4.06,10.639,8.334
		c0.019,2.734-0.183,5.487-0.517,8.204c-0.882,7.166-1.578,14.376-2.947,21.453c-1.109,5.731-1.845,11.689-5.078,16.803
		c-0.952,1.506-2.201,2.825-3.313,4.229c-0.272-0.089-0.545-0.179-0.817-0.268C78.357,155.624,79.034,136.079,79.714,116.415z"/>
	<path fill-rule="evenodd" clip-rule="evenodd" d="M79.719,250.81c4.741-0.555,10.82,4.266,10.598,8.49
		c-0.314,5.963-1.08,11.904-1.752,17.844c-0.401,3.541-0.867,7.086-1.528,10.586c-1.166,6.174-1.983,12.48-5.254,18.027
		c-0.858,1.453-2.112,2.674-3.185,4.004c-0.302-0.088-0.604-0.174-0.907-0.262C78.365,289.98,79.04,270.46,79.719,250.81z"/>
</g>
</svg>
