<?xml version="1.0" encoding="utf-8"?>
<!-- Generator: Adobe Illustrator 16.0.0, SVG Export Plug-In . SVG Version: 6.00 Build 0)  -->
<!DOCTYPE svg PUBLIC "-//W3C//DTD SVG 1.1//EN" "http://www.w3.org/Graphics/SVG/1.1/DTD/svg11.dtd">
<svg version="1.1" id="Layer_1" xmlns="http://www.w3.org/2000/svg" xmlns:xlink="http://www.w3.org/1999/xlink" x="0px" y="0px"
	 width="460.93px" height="460px" viewBox="0 0 460.93 460" enable-background="new 0 0 460.93 460" xml:space="preserve">
<g>
	<path fill="#FFFFFF" d="M460.434,216.244c0.418,7.471,0.457,15.094,0.118,22.944c-0.37,8.575-1.062,17.15-2.417,25.632
		c-2.67,16.693-8.527,32.621-13.243,48.801c-0.787,2.699-2.542,3.607-4.969,4.146c-5.776,1.277-11.532,2.652-17.292,4.006
		c-15.336,3.605-30.665,7.234-46.004,10.826c-13.227,3.1-26.469,6.137-39.692,9.242c-18.502,4.346-36.988,8.75-55.49,13.094
		c-15.012,3.522-30.041,6.971-45.052,10.498c-18.174,4.27-36.332,8.604-54.503,12.883c-16.955,3.99-33.923,7.922-50.873,11.93
		c-3.07,0.728-6.138,1.547-9.1,2.617c-2.134,0.771-3.279,2.65-3.13,4.939c0.15,2.293,1.565,3.934,3.75,4.512
		c1.292,0.342,2.812,0.307,4.126,0.004c15.105-3.477,30.191-7.035,45.283-10.572c15.338-3.596,30.68-7.182,46.014-10.789
		c11.279-2.651,22.546-5.36,33.829-7.995c18.59-4.343,37.192-8.621,55.78-12.968c13.716-3.209,27.41-6.5,41.123-9.719
		c13.224-3.104,26.464-6.133,39.686-9.246c13.547-3.188,27.075-6.449,40.617-9.652c2.784-0.659,5.598-1.206,8.753-1.881
		c-0.269,0.877-0.335,1.283-0.509,1.638c-6.449,13.219-14.072,25.723-22.969,37.436c-0.7,0.922-1.885,1.768-2.994,2.045
		c-10.915,2.721-21.86,5.32-32.799,7.943c-12.969,3.113-25.944,6.194-38.909,9.328c-17.904,4.323-35.798,8.7-53.704,13.021
		c-14.583,3.519-29.183,6.971-43.769,10.478c-15.073,3.623-30.141,7.27-45.204,10.922c-7.533,1.826-15.07,3.643-22.581,5.557
		c-3.382,0.861-5.127,3.213-4.807,6.066c0.373,3.319,3.474,5.221,7.39,4.313c9.258-2.141,18.498-4.36,27.738-6.584
		c17.986-4.324,35.969-8.676,53.953-13.012c13.123-3.166,26.25-6.316,39.371-9.492c16.039-3.881,32.07-7.797,48.111-11.672
		c14.824-3.582,29.654-7.141,44.486-10.689c3.241-0.772,6.505-1.463,9.758-2.19c-0.346,1.266-0.928,1.945-1.54,2.596
		c-21.048,22.379-45.526,39.969-73.526,52.635c-14.158,6.406-28.836,11.302-43.983,14.697c-39.591,8.877-80.892,7.293-119.599-5.094
		c-20.124-6.439-39.051-15.332-56.703-26.92c-17.171-11.271-32.581-24.57-46.17-40.01c-15.146-17.212-27.487-36.205-36.97-57.058
		c-5.457-12-10-24.354-13.098-37.172c-1.932-7.988-3.489-16.086-4.792-24.203c-1.202-7.478-1.793-15.051-2.746-22.572
		c-0.419-3.305-0.25-3.56,3.073-4.36c11.667-2.813,23.321-5.681,34.973-8.56c2.584-0.638,5.219-1.197,7.681-2.17
		c3.009-1.191,4.167-3.783,3.298-6.414c-0.878-2.662-3.598-4.195-6.615-3.555c-3.424,0.727-6.819,1.578-10.219,2.413
		c-9.955,2.444-19.898,4.935-29.86,7.349c-2.981,0.723-3.231,0.4-2.872-2.555c1.106-9.099,2.252-18.192,3.213-27.306
		c0.201-1.898,0.822-2.736,2.678-3.192c11.653-2.864,23.286-5.812,34.908-8.799c3.538-0.909,7.123-1.782,10.496-3.145
		c2.612-1.054,3.516-3.493,2.88-5.719c-0.682-2.385-2.833-3.975-5.461-3.94c-0.823,0.012-1.659,0.17-2.463,0.369
		c-10.601,2.624-21.191,5.28-31.793,7.896c-2.599,0.641-5.225,1.164-8.223,1.826c0.206-1.631,0.234-2.629,0.467-3.577
		c2.831-11.581,6.276-22.96,10.804-34.014c0.755-1.843,1.834-2.639,3.539-3.022c3.657-0.825,7.321-1.623,10.976-2.457
		c5.121-1.168,10.261-2.269,15.347-3.573c3.34-0.856,5.338-3.815,4.658-6.413c-0.801-3.059-3.836-4.745-7.297-3.977
		c-5.453,1.209-10.892,2.48-16.343,3.696c-1.17,0.262-2.368,0.397-3.949,0.655c0.38-0.888,0.546-1.338,0.759-1.764
		c9.619-19.303,21.83-36.826,36.452-52.65c20.976-22.698,45.589-40.399,73.731-53.176C151.01,14.564,166.547,9.43,182.659,6.01
		c39.213-8.32,75.951-4.388,114.511,4.651c3.741,0.877,7.339,2.371,11.003,3.582c-2.645,1.097-5.21,1.706-7.794,2.223
		c-15.689,3.145-31.392,6.24-47.079,9.403c-16.015,3.23-32.012,6.54-48.024,9.776c-15.523,3.138-31.061,6.213-46.586,9.342
		c-15.935,3.211-31.862,6.453-47.792,9.685c-3.35,0.68-6.714,1.299-10.04,2.083c-3.986,0.94-6.193,3.612-5.559,6.497
		c0.722,3.282,3.877,4.894,7.94,4.054c0.082-0.018,0.162-0.039,0.244-0.056c13.973-2.814,27.947-5.622,41.917-8.446
		c15.851-3.207,31.697-6.436,47.546-9.646c11.687-2.367,23.371-4.729,35.062-7.082c15.691-3.158,31.39-6.295,47.081-9.457
		c16.507-3.326,33-6.722,49.53-9.93c1.724-0.335,3.868-0.05,5.455,0.708c12.508,5.972,24.365,13.071,35.642,21.138
		c0.434,0.311,0.75,0.783,1.364,1.439c-1.102,0.29-1.879,0.521-2.668,0.696c-5.859,1.301-11.723,2.587-17.583,3.882
		c-13.186,2.914-26.376,5.805-39.552,8.768c-3.488,0.785-6.998,1.591-10.362,2.772c-2.484,0.874-3.635,3.386-3.197,5.613
		c0.491,2.509,2.644,4.284,5.403,4.335c0.902,0.018,1.822-0.171,2.713-0.366c3.825-0.837,7.64-1.726,11.461-2.57
		c20.992-4.641,41.991-9.25,62.97-13.954c1.666-0.374,2.813-0.104,4.078,0.975c9.729,8.307,18.608,17.443,26.858,27.205
		c0.338,0.399,0.525,0.925,0.904,1.611c-1.525,0.409-2.793,0.787-4.078,1.089c-16.146,3.801-32.297,7.577-48.441,11.388
		c-18.817,4.442-37.635,8.889-56.438,13.391c-3.473,0.832-6.981,1.68-10.286,2.989c-2.688,1.065-3.587,3.539-2.873,5.933
		c0.729,2.446,3.035,4.025,5.761,3.864c0.824-0.048,1.646-0.261,2.454-0.45c6.977-1.638,13.948-3.286,20.922-4.932
		c16.22-3.825,32.44-7.636,48.654-11.48c16.545-3.923,33.083-7.866,49.613-11.842c1.805-0.435,2.975,0.027,3.984,1.597
		c3.204,4.972,6.599,9.822,9.746,14.828c2.28,3.63,4.286,7.434,6.563,11.42c-1.528,0.519-2.592,0.971-3.7,1.241
		c-8.256,2.015-16.53,3.954-24.781,5.991c-17.475,4.316-34.932,8.702-52.407,13.017c-19.012,4.692-38.04,9.316-57.049,14.023
		c-3.142,0.778-6.271,1.68-9.303,2.801c-2.056,0.761-3.084,2.648-2.938,4.804c0.152,2.246,1.421,4.016,3.693,4.521
		c1.396,0.312,2.986,0.315,4.374-0.019c12.64-3.04,25.248-6.2,37.874-9.292c14.326-3.509,28.67-6.949,42.991-10.481
		c21.359-5.269,42.712-10.575,64.053-15.921c1.632-0.408,2.557,0.062,3.178,1.487c0.898,2.063,1.813,4.118,2.688,6.191
		C452.983,166.331,458.985,190.365,460.434,216.244z M328.774,224.207c0.137-0.018,0.272-0.036,0.41-0.055
		c0.28,0.683,0.588,1.354,0.84,2.049c2.154,5.914,4.257,11.848,6.455,17.746c3.503,9.4,6.928,18.836,10.649,28.152
		c3.171,7.932,6.638,15.75,10.139,23.545c1.226,2.729,3.239,3.574,5.643,3.023c2.89-0.661,5.13-3.171,5.006-5.958
		c-0.26-5.813-0.804-11.621-0.987-17.438c-0.45-14.15-0.844-28.301-1.1-42.457c-0.16-8.922-0.035-17.851-0.024-26.774
		c0.002-1.917,0.008-3.836,0.1-5.751c0.301-6.231,0.682-12.461,0.914-18.695c0.029-0.765-0.459-1.987-1.051-2.267
		c-6.365-2.997-11.257-0.76-11.445,6.347c-0.403,15.156-0.834,30.313-1.051,45.472c-0.088,6.238,0.338,12.483,0.555,18.727
		c0.078,2.25,0.229,4.496,0.345,6.744c-1.713-3.029-3.013-6.127-4.087-9.303c-2.04-6.035-3.854-12.146-5.942-18.164
		c-2.034-5.861-4.141-11.706-6.49-17.445c-3.172-7.748-6.641-15.374-9.914-23.082c-1.773-4.173-7.719-3.69-9.483-0.184
		c-0.786,1.563-1.446,3.418-1.423,5.13c0.402,28.081-1.139,56.184,0.958,84.248c0.532,7.135,0.702,14.297,1.253,21.43
		c0.119,1.56,0.81,3.355,1.839,4.498c1.841,2.039,6.554,1.947,9.358,0.185c2.401-1.508,1.355-3.615,0.896-5.607
		c-0.036-0.162-0.066-0.328-0.079-0.494c-0.763-10.285-1.912-20.561-2.187-30.858C328.491,252.722,328.774,238.46,328.774,224.207z
		 M177.58,122.242c2.239,6.241,4.159,11.801,6.225,17.307c4.306,11.481,8.556,22.986,13.085,34.38
		c2.85,7.167,6.077,14.188,9.319,21.189c1.148,2.481,3.295,3.224,5.617,2.576c2.935-0.818,4.947-2.972,4.835-5.535
		c-0.259-5.898-0.761-11.789-0.974-17.688c-0.445-12.309-0.906-24.619-1.101-36.934c-0.185-11.756-0.043-23.517-0.028-35.274
		c0.001-1.08,0.123-2.159,0.176-3.24c0.3-6.146,0.64-12.289,0.836-18.438c0.022-0.742-0.551-1.922-1.167-2.205
		c-6.839-3.144-11.13-0.2-11.302,6.262c-0.429,15.985-0.911,31.975-1.034,47.965c-0.059,7.474,0.67,14.953,1.02,22.432
		c0.016,0.315-0.196,0.644-0.495,1.542c-1.813-4.924-3.488-9.239-4.995-13.61c-1.75-5.082-3.242-10.255-5.048-15.316
		c-2.725-7.641-5.473-15.279-8.493-22.804c-2.377-5.92-5.064-11.727-7.896-17.443c-0.569-1.148-2.345-2.208-3.679-2.371
		c-3.974-0.487-7.009,2.614-6.938,6.906c0.464,28.24-1.1,56.502,1.004,84.725c0.538,7.216,0.704,14.458,1.197,21.679
		c0.152,2.229,0.959,4.075,3.327,5.346c2.6,1.394,4.679,0.357,6.924-0.333c2.022-0.623,3.043-1.948,2.339-4.186
		c-0.224-0.713-0.459-1.444-0.523-2.183c-0.762-8.616-1.945-17.225-2.129-25.854C177.336,155.077,177.58,139.006,177.58,122.242z
		 M273.943,268.113c0.843,4.428,1.646,8.475,2.372,12.535c0.51,2.848,0.917,5.713,1.364,8.572c0.771,4.92,1.431,9.86,2.349,14.754
		c0.438,2.34,1.214,4.649,2.114,6.859c0.874,2.146,2.479,3.114,4.999,2.45c4.113-1.082,6.292-4.668,5.504-9.807
		c-1.193-7.785-2.556-15.545-3.737-23.332c-0.771-5.09-1.23-10.229-2.054-15.31c-0.833-5.153-1.875-10.276-2.945-15.387
		c-1.137-5.426-2.156-10.896-3.695-16.211c-1.862-6.431-3.932-12.838-6.471-19.025c-1.451-3.532-3.438-7.244-6.202-9.754
		c-5.212-4.729-9.855-4.524-13.652,0.708c-1.515,2.087-2.604,4.745-3.054,7.291c-1.369,7.763-2.778,15.563-3.35,23.408
		c-0.82,11.285-0.963,22.619-1.297,33.937c-0.15,5.081,0.172,10.186-0.137,15.254c-0.577,9.461-1.48,18.902-2.191,28.354
		c-0.135,1.798-0.26,3.66,0.052,5.414c0.641,3.603,4.229,5.478,8.104,4.476c3.048-0.785,4.984-4.457,4.181-7.58
		c-0.303-1.176-0.305-2.49-0.162-3.709c1.309-11.252,2.584-22.517,2.125-33.863c-0.128-3.166,0.463-5.109,3.845-6.004
		C265.969,271.095,269.799,269.539,273.943,268.113z M222.832,269.373c-0.623-5.928-0.842-12.024-1.996-17.938
		c-1.412-7.242-4.186-14.117-7.731-20.621c-2.724-4.992-5.864-9.544-10.787-12.825c-5.514-3.676-11.628-5.148-17.969-6.115
		c-3.178-0.484-5.459,1.559-5.354,4.796c0.297,9.062,0.767,18.117,1.017,27.179c0.288,10.407,0.506,20.819,0.577,31.231
		c0.043,6.072-0.476,12.152-0.358,18.224c0.188,9.813,0.643,19.623,1.095,29.428c0.125,2.711,0.515,5.426,1.011,8.096
		c0.521,2.795,3.324,5.246,5.379,4.492c2.603-0.953,5.402-2.041,7.396-3.858c7.742-7.063,14.109-15.334,18.582-24.802
		c2.963-6.266,5.498-12.856,7.188-19.566C222.3,281.447,222.225,275.423,222.832,269.373z M78.464,188.417
		c6.868-3.272,12.138-7.752,14.816-14.179c2.561-6.143,4.155-12.747,5.611-19.274c1.37-6.141,2.071-12.437,2.94-18.683
		c0.818-5.878,1.284-11.777-0.629-17.567c-2.357-7.139-7.646-11.729-14.688-13.571c-4.442-1.163-8.893-0.67-13.345,0.001
		c-4.027,0.607-6.759,4.333-6.039,8.259c0.194,1.058,0.349,2.146,0.323,3.217c-0.102,4.242-0.34,8.482-0.417,12.726
		c-0.114,6.252-0.093,12.508-0.201,18.76c-0.187,10.803-0.424,21.604-0.658,32.407c-0.015,0.648-0.03,1.39-0.332,1.927
		c-1.215,2.162-0.829,4.098,0.516,6.028c0.308,0.442,0.462,1.069,0.483,1.62c0.406,10.787,0.806,21.575,1.153,32.365
		c0.103,3.146,1.409,5.076,4.269,5.947c2.438,0.744,5.065-0.334,6.627-2.775c1.933-3.021,1.766-6.055,1.32-9.661
		C79.078,206.753,78.969,197.416,78.464,188.417z M78.477,322.922c1.697-0.871,3.017-1.396,4.171-2.164
		c8.084-5.396,12.28-13.222,14.104-22.566c1.144-5.851,2.806-11.615,3.627-17.504c1.011-7.228,2.037-14.56,1.859-21.816
		c-0.189-7.725-4.077-13.867-11.291-17.541c-6.073-3.094-12.398-2.688-18.729-1.447c-3.212,0.63-5.41,4.113-5.291,7.021
		c0.156,3.801,0.194,7.615,0.098,11.418c-0.322,12.643-0.757,25.281-1.083,37.924c-0.125,4.83-0.467,9.703,0.014,14.484
		c0.473,4.686-2.106,9.563,0.895,14.059c0.077,0.115,0.006,0.326,0.012,0.492c0.384,10.867,0.761,21.734,1.158,32.603
		c0.118,3.239,3.706,5.875,6.868,5.088c3.914-0.976,6.977-6.398,5.804-10.262c-0.265-0.873-0.661-1.748-0.714-2.64
		C79.442,340.949,78.962,331.826,78.477,322.922z M140.719,335.119c-0.457-6.461-0.958-12.422-1.28-18.391
		c-0.456-8.477-0.759-16.961-1.174-25.438c-0.083-1.692,0.378-2.522,2.255-2.789c4.178-0.592,8.329-1.403,12.463-2.264
		c2.727-0.564,5.464-1.414,6.398-4.469c0.779-2.549-0.117-4.713-2.115-6.484c-2.208-1.959-4.562-0.83-6.873-0.432
		c-3.96,0.678-7.91,1.418-11.913,2.141c-0.449-6.068-0.979-11.854-1.277-17.654c-0.313-6.069-0.374-12.151-0.614-18.229
		c-0.072-1.828,0.519-2.769,2.461-2.965c3.303-0.338,6.64-0.642,9.853-1.412c2.083-0.502,4.14-1.574,5.901-2.824
		c1.803-1.281,2.341-3.664,1.156-5.373c-1.055-1.521-3.09-3.168-4.802-3.297c-7.988-0.596-15.598,1.814-23.127,4.051
		c-4.121,1.226-4.78,3.105-4.1,7.523c0.228,1.481,0.535,2.962,0.618,4.453c0.574,10.213,1.563,20.432,1.54,30.645
		c-0.047,21.422,1.052,42.781,2.487,64.136c0.146,2.147,0.649,4.271,0.869,6.416c0.458,4.473,5.617,6.198,9.182,5.161
		c3.809-1.108,7.666-2.047,11.486-3.118c2.31-0.646,4.698-1.17,6.857-2.168c3.735-1.726,4.768-5.619,2.498-8.441
		c-1.58-1.965-4.797-2.693-7.272-1.938C148.492,333.092,144.728,334.025,140.719,335.119z M231.129,83.045
		c0.214,3.033,3.217,6.918,6.272,5.955c1.733-0.547,3.51-0.986,5.203-1.644c3.18-1.233,3.94-0.758,4.11,2.741
		c0.531,10.885,1.105,21.768,1.596,32.654c0.489,10.897,1.072,21.795,1.271,32.698c0.105,5.857,1.65,11.711,0.191,17.601
		c-0.152,0.614,0.199,1.499,0.588,2.075c1.991,2.952,4.771,3.727,8.432,2.465c2.322-0.8,3.845-3.541,3.652-6.683
		c-0.258-4.227-0.635-8.447-0.813-12.676c-0.466-10.979-0.847-21.96-1.274-32.94c-0.102-2.578-0.235-5.154-0.397-7.729
		c-0.393-6.226-0.876-12.444-1.192-18.672c-0.198-3.887,0.063-7.807-0.295-11.673c-0.354-3.814-0.536-3.871,3.146-4.694
		c0.405-0.09,0.843-0.057,1.236-0.176c5.051-1.539,10.177-2.883,15.115-4.728c2.879-1.075,3.438-4.763,1.55-7.174
		c-2.171-2.771-3.985-3.04-7.737-1.847c-3.702,1.176-7.521,1.991-11.299,2.92c-4.259,1.046-8.525,2.06-12.797,3.052
		c-3.776,0.878-7.549,1.788-11.354,2.53C233.762,77.604,231.082,80.502,231.129,83.045z M398.478,187.334
		c0.287,1.424,0.646,2.46,0.685,3.51c0.228,5.988,0.381,11.979,0.552,17.971c0.067,2.333,0.047,4.671,0.183,7
		c0.635,10.955,1.347,21.907,1.956,32.863c0.276,4.987,0.461,9.983,0.536,14.979c0.049,3.289-0.21,6.58-0.249,9.871
		c-0.01,0.787,0.104,1.703,0.509,2.344c1.589,2.523,4.537,3.82,6.752,3.14c4.036-1.242,5.618-3.109,5.452-6.9
		c-0.188-4.316-0.69-8.617-0.87-12.932c-0.445-10.728-0.742-21.462-1.188-32.188c-0.176-4.234-0.618-8.457-0.881-12.688
		c-0.309-4.98-0.604-9.964-0.808-14.948c-0.154-3.805,0.054-7.633-0.281-11.417c-0.324-3.668-0.521-3.687,3.034-4.56
		c0.479-0.119,1.013-0.044,1.482-0.185c4.816-1.441,9.688-2.736,14.412-4.435c2.669-0.959,3.786-3.756,3.032-6.039
		c-0.859-2.604-3.768-4.355-6.47-3.726c-4.672,1.091-9.311,2.325-13.975,3.445c-3.788,0.909-7.604,1.711-11.395,2.608
		c-4.089,0.97-8.255,1.734-12.205,3.112c-1.837,0.642-3.763,2.224-4.719,3.908c-1.395,2.453,0.04,4.71,1.921,6.645
		c1.752,1.803,3.484,1.295,5.479,0.578C393.644,188.495,395.975,188.013,398.478,187.334z M125.688,188.384
		c-0.154,0-0.31-0.001-0.463-0.001c0,5.671-0.116,11.346,0.059,17.011c0.068,2.203,0.511,4.498,1.323,6.535
		c0.473,1.187,1.865,2.366,3.106,2.808c2.301,0.814,4.79,0.371,6.413-1.523c1.691-1.975,2.632-4.385,1.775-7.166
		c-0.384-1.247-0.704-2.58-0.693-3.871c0.111-13.995,0.301-27.989,0.453-41.985c0.029-2.638-0.146-5.285,0-7.915
		c0.274-4.897,0.889-9.778,1.055-14.677c0.351-10.239,0.584-20.485,0.672-30.729c0.021-2.451-0.577-4.943-1.149-7.354
		c-0.781-3.292-3.705-5.1-6.725-4.403c-2.912,0.67-5.282,4.293-4.96,7.228c0.433,3.955,1.048,7.943,0.925,11.896
		c-0.448,14.39-1.335,28.767-1.733,43.157C125.458,167.715,125.688,178.053,125.688,188.384z"/>
	<path fill="#FFFFFF" d="M272.841,256.123c-4.512,1.533-8.946,3.043-13.388,4.553c-1.354-5.793,0.616-35.075,2.899-40.445
		C266.571,232.287,270.612,243.929,272.841,256.123z"/>
	<path fill="#FFFFFF" d="M193.142,316.211c-0.53-30.025-1.063-60.052-1.6-90.398c4.623,2.421,8.289,5.462,10.256,10.002
		c2.599,5.996,5.533,11.979,7.063,18.271c2.246,9.234,2.222,18.728,0.64,28.205c-1.257,7.519-3.579,14.674-7.073,21.354
		c-2.363,4.516-5.636,8.555-8.5,12.805C193.666,316.369,193.404,316.289,193.142,316.211z"/>
	<path fill="#FFFFFF" d="M79.714,116.415c4.583-0.771,10.61,4.061,10.64,8.334c0.019,2.734-0.184,5.487-0.518,8.204
		c-0.882,7.166-1.578,14.376-2.946,21.453c-1.109,5.731-1.846,11.689-5.078,16.803c-0.952,1.506-2.201,2.825-3.313,4.229
		c-0.271-0.089-0.545-0.18-0.816-0.269C78.357,155.624,79.034,136.079,79.714,116.415z"/>
	<path fill="#FFFFFF" d="M79.719,250.81c4.74-0.556,10.819,4.266,10.598,8.489c-0.314,5.964-1.08,11.904-1.752,17.845
		c-0.401,3.541-0.867,7.086-1.528,10.586c-1.166,6.174-1.982,12.48-5.254,18.027c-0.858,1.453-2.112,2.674-3.185,4.004
		c-0.303-0.088-0.604-0.174-0.907-0.263C78.365,289.98,79.04,270.46,79.719,250.81z"/>
</g>
</svg>
