<?xml version="1.0" encoding="UTF-8"?>
<!DOCTYPE svg  PUBLIC '-//W3C//DTD SVG 1.1//EN'  'http://www.w3.org/Graphics/SVG/1.1/DTD/svg11.dtd'>
<svg enable-background="new 0 0 1024 768" version="1.1" viewBox="0 0 1024 768" xml:space="preserve" xmlns="http://www.w3.org/2000/svg">
<g clip-rule="evenodd" fill-rule="evenodd">
	<path d="m351.54 406.07c-2.824-1.568-1.611-8.434-1.741-11.168-0.706-14.812 0.039-29.763-0.352-44.6-0.354-13.458 0.398-26.885 0.352-40.324-0.02-5.682 0.244-11.361 0.221-17.043-0.015-3.605 0.146-6.689-0.146-11.773-0.11-1.917-4.406-1.477-6.845-1.444-3.008 0.04-6.063 0.072-9.065-0.136-0.799-0.056-2.071 0.019-2.765-0.479-1.07-0.769-1.708-3.519-0.72-4.799 1.737-2.252 11.121-0.988 13.645-0.934 12.597 0.273 24.768 0.142 37.355-0.387 2.108-0.088 6.274-0.808 7.2 0.48 1.008 1.403-0.336 4.351-1.321 4.801-2.449 1.116-5.554 0.352-8.145 0.407-1.598 0.034-3.201-0.116-4.799-0.14-1.316-0.02-3.158 0.026-4.458 0.381-1.812 0.495-1.347 2.438-1.529 4.113-0.188 1.737-0.266 3.45-0.287 5.196-0.043 3.462 0.211 6.918 0.258 10.379 0.027 1.966 0.021 3.932-0.119 5.894-0.474 6.673-0.6 13.226-0.588 19.917 0.027 14.44-0.809 29.033 0.761 43.396 1.354 12.389 0.982 24.625 0.545 37.174-0.1 2.879-15.754 1.935-17.325 1.157-0.044-0.021-0.089-0.043-0.132-0.068z"/>
	<path d="m664.31 369.53c-0.03 1.892-0.078 3.774-0.147 5.643-0.094-0.013-0.159-0.063-0.198-0.152 1.132 7.536 0.137 15.582 0.352 23.181 0.063 2.215 0.839 6.66-0.239 7.92-0.957 1.115-5.093 0.719-7.44 0.719h-4.08c-3.29 0-4.938 0.248-5.16-3.24-0.087-1.379-0.053-3.08 0-4.318 0.375-8.754-0.414-18.799-0.119-26.16 0.223-5.58-0.24-11.915-0.24-17.52 0-5.486-0.075-11.746 0-17.28 0.056-4.173-0.282-9.944-0.24-15.36 0.02-2.522 0.166-5.696 0.12-8.16-0.059-3.123-0.075-5.991-0.12-8.4-0.1-5.378 2e-3 -11.597 0-17.28-2e-3 -4.725-0.138-7.781-0.24-12.96-0.039-1.975-0.14-2.73 0.754-3.104 0.67-0.281 1.621-0.222 2.606-0.136 1.943 0.17 4.499 0.127 7.2 0 2.111-0.1 5.305-0.75 6.24 0.24 0.747 0.792 0.388 2.556 0.359 3.96-0.174 8.621 0.216 17.892 0.12 25.44-0.067 5.337-0.207 10.61 0 16.56 0.058 1.661-0.138 3.352-0.12 5.04 9e-3 0.827 0.218 1.582 0.24 2.4 0.074 2.679-0.068 5.31 0 7.92 0.09 3.442-0.278 6.869-0.12 10.2 0.387 8.154 0.605 16.588 0.472 24.847zm-1.193 1.882c0.051 0.139 0.058-0.289 0 0z"/>
	<path d="m739.47 277.73c-2.355 0.644-0.821 17.322-0.766 19.199 0.24 8.06 1.216 16.308 0.646 24.361-0.087 1.222 0.101 2.369-0.12 3.48 5.647 0.594 14.402 0.549 21.6 0.36 2.405-0.063 6.721-0.799 7.68 1.2 0.703 1.464 0.017 4.166-0.959 4.56-0.839 0.338-1.893-0.175-2.881-0.24-4.202-0.275-8.255-0.136-12.96-0.36-3.495-0.167-7.128-0.039-9.479 0-0.998 0.017-1.999 0.195-2.88-0.12-0.619 22.492 9e-3 47.844-0.24 70.079 4.578 0.33 10.077 0.211 14.64 0.48 2.31 0.137 3.898 0.119 6.84 0.119 2.462 0 5.948-0.4 6.721 0.361 0.872 0.859 0.531 4.717-0.96 5.279-1.17 0.439-3.184 0.148-5.28 0.24-4.195 0.184-7.304-0.561-11.521-0.359-1.77 0.084-3.608-0.076-5.64 0-1.909 0.07-3.623 0.164-5.525 0.01-0.896-0.072-1.953-0.088-2.875-0.131-2.904-0.133-5.464 0.047-8.279 0-2.207-0.037-3.662 0.105-4.44-1.08-0.452-0.689-0.26-1.92-0.24-3.24 0.148-9.885 0.219-22.019 0.12-30.958-0.139-12.656-0.12-24.321-0.12-38.88 0-13.333 0.046-26.014 0-38.16-0.014-3.771-0.172-6.841-0.119-10.08 0.046-2.899-0.314-6.085-0.12-9.36 0.065-1.111 0.245-2.862 1.439-2.88 1.02-0.015 2.233 0.333 3.601 0.36 3.059 0.06 6.691 0.201 9.84 0 0.506-0.033 1.052-0.032 1.484-0.036 0.865-8e-3 1.078 0.052 2.235 0.036 2.303-0.033 4.424-0.167 6.72-0.24 2.212-0.071 4.714 0.106 7.561 0.12 2.8 0.013 6.941-0.149 9.96-0.12 1.313 0.013 2.38-0.252 3 0.36 0.901 0.891 0.423 4.296-0.48 5.04-0.845 0.697-4.319 0.509-6 0.48-0.818-0.014-1.806-0.12-2.76-0.12-5.512 2e-3 -10.751 0.01-15.72 0.12-1.65 0.036-2.571-0.195-3.723 0.12z"/>
	<path d="m621.96 393.66c-0.286-1.326-4.624-0.959-7.561-0.959h-16.8c-2.781 0-7.785-0.319-7.92 0.479-0.367 1.662-0.772 4.221-1.08 6.602-0.347 2.686-0.301 5.459-1.92 6.359-1.092 0.607-3.68 0.668-4.2-0.24-0.398-0.695 0.109-2.402 0.36-4.08 0.211-1.41 0.312-2.975 0.479-3.84 0.224-1.145 0.413-2.617 0.601-4.08 0.719-5.605 1.558-10.873 2.52-16.56 0.228-1.345 0.636-2.662 0.84-3.959 0.181-1.147 0.114-2.316 0.24-3.48 0.112-1.042 0.313-2.068 0.48-3.12 1.647-10.408 2.879-20.919 4.56-31.44 0.682-4.267 1.271-8.488 1.8-12.6 0.537-4.169 1.356-8.236 1.92-12.48 0.81-6.087 1.767-12.546 2.761-18.84 0.324-2.055 0.421-4.212 0.84-6.36 0.354-1.813 0.782-3.897 1.08-6.12 0.3-2.243 0.66-4.975 1.56-5.64 1.181-0.873 4.042-0.372 5.521-0.48 2.497-0.184 6.934 0.355 9.96 0.36 1.004 1e-3 2.293-0.159 3 0.12 0.908 0.358 1.457 1.648 1.68 3.24 0.395 2.822 0.725 5.882 1.08 8.4 0.208 1.475 0.364 2.719 0.48 4.32 0.392 5.422 1.791 10.643 2.279 16.08 0.237 2.644 0.596 5.352 0.96 8.04 1.13 8.335 2.248 17.03 3.36 25.32 0.752 5.605 1.709 11.285 2.4 16.92 0.688 5.616 1.769 11.173 2.399 16.92 0.979 8.915 2.127 15.438 3.36 24.719 0.121 0.916 0.282 2.504 0.479 4.08 0.366 2.92 1.544 5.279-1.92 5.281-2.201 0-5.935 0-8.88-0.121-1.198-0.049-3.33 0.232-4.08-0.24-1.552-0.979-1.477-4.043-1.8-6.24-0.334-2.283-0.646-3.808-0.838-6.361zm-16.92-97.079c-1.881 12.32-4.125 24.646-6.12 38.28-1.223 8.355-2.978 16.98-4.2 25.92-0.882 6.451-2.121 12.781-3.12 19.44-0.23 1.541-1.045 5.677-0.6 6.48 0.69 1.242 4.956 0.92 7.2 0.959 6.676 0.115 12.724 0 19.68 0 0.675 0 1.497 0.154 2.04 0 0.567-0.16 1.222-0.173 1.2-0.84-2.005-15.483-3.884-30.982-5.895-46.465-1.28-9.857-3.302-19.6-4.67-29.443-1.224-8.804-0.116-18.736-3.507-27.049-0.45 4.27-1.361 8.475-2.008 12.718z"/>
	<path d="m687.48 398.85c7.838 0.211 14.504 0.227 22.801 0.24 0.864 2e-3 1.98 0.033 3.239 0 1.646-0.043 2.843-0.172 3.601 0.48 0.863 0.744 1.16 5.002 0.359 5.881-0.823 0.904-3.297 0.5-5.285 0.479-7.896-0.085-15.778 0.5-23.673 0.531-2.925 0.012-14.775 1.642-16.882-1.01-0.754-0.949-0.479-4.328-0.479-6.48 0-31.742 0.651-63.482 0.633-95.225-5e-3 -5.806-0.022-11.612-0.063-17.418-0.014-1.983-1.489-13.573 0.631-14.557 0.489-0.228 0.965-7e-3 1.56 0.12 3.906 0.834 7.887-0.143 11.822 0.067 0.716 0.038 1.516 0.154 2.019 0.717 0.232 0.26 0.414 0.67 0.259 1.012 0.261 0.029 0.18 0.436 0.181 0.604 0.16 27.672-0.56 55.339-0.729 83.01-0.086 13.799 0.575 27.774 6e-3 41.549z"/>
	<path d="m298.94 280.53c-0.798 0.835-1.368 1.931-1.615 3.348-0.994 5.687 1.084 11.651 3.287 16.789 1.369 3.191 2.857 6.336 4.146 9.561 7.005 17.534 15.848 34.263 22.728 51.861 0.872 2.231 1.548 4.553 2.52 6.788 5.263 12.102 16.934 30.945-2.423 36.551-3.19 0.924-6.858 1.599-10.187 1.625-4.583 0.035-9.298 0.499-13.813-0.49-4.109-0.9-6.394-3.51-8.856-6.781-3.78-5.021-7.162-10.34-10.101-15.904-1.412-2.674-7.299-11.512-3.758-14.298 1.982-1.56 5.939-0.195 7.599 1.255 2.599 2.27 2.831 7.13 3.888 10.272 1.247 3.706 2.425 7.104 4.695 10.303 1.372 1.936 4.341 6.864 6.188 8.412 2.075 1.737 4.954 0.945 7.513 1.224 1.704 0.186 3.045-0.094 4.717-0.35 1.604-0.247 2.71-0.383 3.931-0.961 1.66-0.786 2.125-2.835 2.446-4.193 1.26-5.348-5.401-13.954-7.534-18.567-2.417-5.229-4.799-10.574-6.877-15.953-4.389-11.362-9.37-22.167-15.351-32.759-3.98-7.049-6.984-14.669-9.233-22.45-2.021-6.989-4.623-15.063-1.487-22.07 4.57-10.212 11.418-11.089 21.771-10.701 2.997 0.112 6.056-0.509 9.032 0.042 8.289 1.533 12.254 7.843 15.688 14.852 2.818 5.753 5.31 11.636 8.513 17.192 0.701 1.216 1.68 3 1.44 4.363-0.163 0.928-0.99 2-1.92 2.303-2.072 0.673-5.49-0.234-6.6-1.333-0.66-0.654-1.255-2.169-1.68-3.757-1.16-4.341-2.542-8.037-4.2-12.12-1.886-4.646-3.784-13.53-9.227-15.138-4.429-1.312-11.87-2.442-15.24 1.084z"/>
	<path d="m468.72 382.39c0.609-0.157 0.647-0.556 0.72-0.84 0.306-1.188 0-3.367 0-5.279 0-33.126-0.438-66.253-1.56-99.361-0.102-2.955-0.794-4.545 2.16-5.04 0.972-0.163 2.11-0.401 2.878 0.119 2.881 1.951 0.94 15.305 0.946 18.377 0.017 7.796 0.038 15.593 0.074 23.39 0.071 15.495 0.179 30.989 0.396 46.483 0.183 13.053 0.642 26.137 0.504 39.19-0.01 1-0.046 2.605 0 4.08 0.057 1.8-0.157 2.931-0.842 3.481-1.825 1.465-11.788 1.192-13.438-0.481-0.341-0.346-0.259-0.619-0.48-0.719-1.167-1.143-1.535-2.809-2.04-4.32-8.832-26.417-17.203-52.986-26.155-79.364-2.28-6.72-4.347-13.508-6.605-20.235-0.18-0.535-0.405-1.239-0.72-2.04-0.36-0.917-0.479-1.62-1.2-1.56-0.941 0.078-0.704 1.325-0.72 2.52-0.449 33.405-0.562 66.938 0.96 100.32 0.081 1.779 0.482 4.568-0.12 5.52-0.846 1.334-4.279 1.473-5.4 0.24-1.021-1.123-0.626-5.809-0.72-8.16-0.567-14.192 0.367-28.538 0.133-42.759-0.245-14.867-0.727-29.728-1.079-44.592-0.236-9.994-0.614-20.013-0.614-30.009 0-2.902-0.74-6.94 0.123-7.922 2.038-2.309 12.031-1.57 14.638-0.357 1.828 0.85 2.504 4.024 3.24 6.24 9.191 27.673 18.35 55.357 27.565 83.022 2.397 7.193 7.275 20.658 7.356 20.056z"/>
	<path d="m217.27 273.48c2.416-0.235 4.313-0.175 6.858-0.234 1.35-0.032 3.632 0.891 4.364 2.281 0.619 1.174 0.369 4.193 0.36 5.468-0.141 20.47 3e-3 40.938 0.609 61.4 0.429 14.485 0.858 28.973 1.302 43.456 0.132 4.3 0.749 9.546 4.46 12.345 3.842 2.896 9.11 2.508 13.479 1.32 4.335-1.177 9.524-2.591 12.554-6.149 2.295-2.695 4.123-6.088 4.738-9.582 1.48-8.409 0.498-16.974 0.162-25.435-0.857-21.595-0.227-43.124-0.597-64.712-0.064-3.766-0.452-6.359-0.48-9.24-0.018-1.828-0.09-4.467 0-6.481 0.053-1.182 0.076-2.728 1.26-3.371 0.823-0.447 4.659 0.261 5.221 1.092 1.062 1.571 0.244 4.591 0.072 6.29-0.289 2.86-0.306 5.747-0.292 8.62 0.111 22.49 1.429 44.963 1.099 67.457-0.088 5.993-0.175 11.976 0.193 17.963 0.372 6.053-0.19 11.818-3.353 17.15-4.697 7.919-12.207 13.536-21.53 14.09-3.144 0.187-5.25 0.525-9.644 0.3-8.292-0.426-19.452-3.438-23.866-10.616-4.28-6.959-2.011-16.543-2.68-24.293-0.975-11.291-0.284-22.538-0.36-33.84-0.052-7.82-0.114-15.626-0.05-23.448 0.052-6.246-0.282-12.468-0.228-18.712 0.038-4.269-0.321-8.36-0.774-12.59-0.208-1.935-1.014-8.947 1.745-9.604l5.378-0.925z"/>
	<path d="m206.52 347.35"/>
	<path d="m206.16 337.4"/>
	<path d="m206.14 349.43c1e-3 1.201 0.602 16.789 0.6 17.99-3e-3 2.191-0.185 6.57-0.24 8.761-0.264 10.396-1.682 19.319-10.68 25.798-5.958 4.294-11.008 5.492-18.344 5.063-4.082-0.238-8.445 0.343-12.467-0.356-17.336-3.017-18.898-24.984-19.086-38.938-0.062-4.602 0.268-9.174 0.457-13.769 0.078-1.889-0.111-5.684 0.12-7.56 0.113-0.917 0.076-3.08 0.84-3.6 1.027-0.7 5.314-0.211 5.568 0.979 0.565 2.644 0.047 7.777-0.049 10.576-0.163 4.709-0.097 9.455-0.129 14.169-0.067 9.806 0.455 20.579 7.509 28.166 5.531 5.947 21.378 5.608 27.11 0.052 5.552-5.383 5.35-13.905 5.275-21.053-0.099-9.428-0.945-18.833-0.896-28.265 0.057-11.081 3e-3 -22.18-0.727-33.232-0.708-10.734-0.48-21.487-0.701-32.232-0.038-1.831-0.602-6.13 0.596-7.516 1.402-1.621 5.541-0.738 7.684-0.765 1.716-0.021 5.643-0.63 6.84 0.6 0.692 0.711 0.222 2.968 0.24 3.96 0.096 5.249-0.341 14.093 0 21 0.1 2.021 0.053 4.204-0.12 6.36l0.017 9.565c0.083 0.915 1e-3 2.7 0 3.6-1e-3 1.081 0.084 3.24 0.12 4.32l0.463 26.327z"/>
	<path d="m563.76 325.71c-0.145 0.05 1.188 0.94 1.31 1.008 2.834 1.579 5.461 2.781 7.45 5.472 2.312 3.125 2.855 7.215 3.12 12 0.784 14.257-0.659 28.479-0.24 42.72 0.049 1.66-5e-3 3.238-0.12 4.801-0.221 2.99-0.763 6.158-2.276 8.786-1.617 2.808-4.247 4.37-7.36 5.057-2.172 0.479-4.378 0.461-6.563 0.796-3.046 0.467-5.869 0.147-8.777 0.271-2.942 0.125-6.383 0.35-9.463 0.209-3.328-0.15-6.451-0.178-9.24-0.24-1.775-0.039-3.665-0.41-6.24-0.359-1.328 0.026-2.677 0.224-4.003 0.095-0.924-0.091-1.976-0.349-2.411-1.258-0.153-0.32-0.234-0.672-0.296-1.021-0.077-0.435-0.12-0.896-0.165-1.333-0.042-0.405 0.076-0.925 0.058-1.487-0.045-1.365-0.049-3.086-0.022-4.717 0.472-29.189-1.671-58.36-1.985-87.542-0.11-10.258-0.07-20.524-0.175-30.777-0.018-1.801-0.357-3.555 0-4.32 0.607-1.297 2.326-1.137 3.721-1.32 0.453-0.06 1.476-0.158 2.279-0.12 1.578 0.075 3.336 0.265 5.16 0.36 4.435 0.231 9.156-0.487 14.4-0.24 3.657 0.173 7.853-0.27 11.132-0.128 1.821 0.079 3.24 0.377 5.547 0.608 1.032 0.103 2.54 0.412 3.453 0.853 1.427 0.688 3.031 1.731 4.348 2.627 3.738 2.545 7.039 9.005 7.44 14.879 0.484 7.093 2.032 17.771-0.36 24.601-0.529 1.511-1.86 3.285-3 4.68-1.685 2.059-4.148 4.164-6.722 5.039zm-24.805-4.449c2.407-0.097 4.79-0.558 7.2-0.562 2.295-4e-3 4.646 0.52 6.934 0.295 1.95-0.192 3.772-1.473 4.768-3.043 0.707-1.117 0.587-2.511 0.811-3.749 0.216-1.196 0.548-2.376 0.637-3.59 0.12-1.617-0.021-3.241-0.068-4.859-0.117-3.935 0.109-7.739 0-11.096-0.102-3.101-0.372-5.372-0.36-8.152 6e-3 -1.315-0.177-2.78-0.372-4.082-0.121-0.81 0.087-1.109-0.047-2.031-0.137-0.941-0.147-2.021-1.067-2.455-3.603-1.7-9.992-1.03-14.812-0.818-1.913 0.083-5.099 0.138-6.742 0.101-1.364-0.031-2.867-0.125-3.6 0.214-1.273 0.587-0.856 3.042-0.841 4.202 0.064 4.637-0.282 9.903-0.239 13.36 0.019 1.575-0.016 3.133-0.12 4.643-0.301 4.326 0.408 8.78 0.6 13.134 0.067 1.529-0.011 3.094 0.12 4.529 0.075 0.828 0.283 1.64 0.357 2.468 0.043 0.473-0.103 0.977 0.437 1.211 1.892 0.824 4.197 0.35 6.197 0.288 0.068-2e-3 0.138-5e-3 0.207-8e-3zm0.808 80.021c3.047 0.04 6.094 0.049 9.145 0.071 1.554 0.011 3.111-0.017 4.653-0.224 7.817-1.061 5.843-11.632 5.983-17.108 0.081-3.152 0.02-6.619-0.174-9.781-0.441-7.191-0.233-14.472 0.189-21.661 0.266-4.513-0.082-9.314 0-12.891 0.124-5.326 0.032-11.616-6.088-13.271-4.608-1.247-9.523-0.014-14.192 0.021-2.436 0.018-4.896 0.219-7.199 0.723-0.33 1.098-0.094 2.351 0.011 3.466 0.292 3.121 0.145 6.259 0.058 9.385-0.082 2.949 0.116 5.886 0.067 8.832-0.047 2.842-0.309 5.679-0.249 8.523 0.07 3.365 0.028 6.662-0.013 10.022-0.038 3.093 0.113 6.17-0.076 9.245-0.199 3.23 0.512 6.358 0.199 9.614-0.108 1.129 0.154 14.858 0.843 14.882 2.282 0.078 4.562 0.123 6.843 0.152z"/>
	<path d="m393.71 273.56c0.053-0.051 0.122-0.583 0.88-0.514 0.69 0.063 1.823-0.133 2.592 0 0.671 0.116 3.115-0.067 3.889-0.067 2.871 0 4.661 0.123 7.606 0 1.542-0.065 1.768 1.765 1.761 2.904-0.01 1.602-0.27 2.051-0.396 3.111-0.245 2.047 0 4.36 0 6.6 0 22.429 0.48 44.855 0.798 67.281 0.094 6.639 0.174 13.279 0.226 19.919 0.075 9.774 0.385 19.546 0.417 29.32 6e-3 2.043 0.703 4.09-0.96 5.16-0.836 0.537-2.379 0.432-3.96 0.359-1.564-0.07-2.964 0.127-4.44 0.119-1.369-6e-3 -2.562-0.119-4.2-0.119-3.41 0-4.838 0.404-4.56-3.48 0.074-1.029 0.283-2.256 0.36-3.361 0.771-11.005-0.31-22.059-0.501-33.067-0.203-11.685-0.034-23.372 0.092-35.056 0.037-3.38 0.094-6.761 0.153-10.141 0.059-3.403 0.123-6.807 0.166-10.21 0.044-3.405 0.076-6.81 0.068-10.214-0.014-6.209-0.292-12.402-0.488-18.606-0.07-2.228-0.086-4.459 0.047-6.685 0.034-0.563 0.125-1.229 0.036-1.81-0.051-0.318 0.237-1.273 0.414-1.443z"/>
	<path d="m776.4 272.5c0.55-0.945 3.075-1.001 4.08-0.48 1.104 0.573 2.056 3.591 2.52 5.16 0.331 1.12 0.523 2.106 0.84 3 0.334 0.942 0.753 1.843 1.058 2.729 0.476 1.381 0.859 2.734 1.343 4.11 0.453 1.292 1.056 2.53 1.56 3.84 3.123 8.121 6.16 16.277 8.932 24.526 0.682 2.03 8.037 22.375 7.629 22.633 0.897-0.567 1.265-1.622 1.963-2.718 0.192-0.303 0.479-0.667 0.679-1.005 2.787-4.719 4.324-10.168 6.392-15.219 1.879-4.59 3.827-9.147 5.818-13.691 4.338-9.901 8.688-19.798 12.868-29.767 0.621-1.482 1.226-3.318 2.64-3.96 1.155-0.524 3.596-0.478 5.16-0.6 3.281-0.256 5.816-0.534 9.601-0.48 1.593 0.023 2.764 0.131 3 0.96 0.274 0.967-0.843 2.486-1.32 3.6-1.281 2.987-2.658 5.73-3.63 8.838-0.706 2.261-1.622 5.525-3.414 7.866-2.743 6.145-6.012 12.856-8.674 19.189-1.992 4.74-4.377 9.316-6.394 14.052-2.308 5.417-5.114 10.671-7.409 16.056-0.277 0.651-0.602 1.564-0.868 2.197-0.471 1.114-1.258 2.18-1.411 3.323-0.125 0.924 0.12 2.196 0.12 3.359 0 8.455 0.509 16.926 0.071 25.375-0.023-2e-3 0.41 17.228 0.288 19.984-0.066 1.489-0.106 3.404 0 5.281 0.123 2.154 0.515 5.164-0.72 6-1.328 0.898-4.918 0.359-7.32 0.359-3.104 0-7.576 0.758-8.64-1.32-0.567-1.107-0.431-3.965-0.36-5.879 0.08-2.168 0.084-4.484 0-6.24-0.71-14.928-0.359-29.938-0.359-44.88 0-1.572 0.217-3.285 0-4.68-0.176-1.129-1.024-2.612-1.561-3.96-0.548-1.377-0.877-2.814-1.32-4.08-0.938-2.679-2.207-5.25-3.119-7.8-3.354-9.362-6.699-18.791-10.2-28.08-1.952-5.18-3.773-10.67-5.76-15.96-0.515-1.369-0.866-2.716-1.32-4.08-0.455-1.366-1.069-2.457-1.561-3.6-0.463-1.072-1.259-2.276-1.202-3.958z"/>
	<path d="m203.28 394.03s1.364 0 0 0z"/>
	<path d="m203.28 394.03"/>
	<path d="m203.28 394.03"/>
	<path d="m374.5 402.88"/>
</g>
</svg>
